<svg version="1.1" xmlns="http://www.w3.org/2000/svg" xmlns:xlink="http://www.w3.org/1999/xlink" width="638.8214" height="505.8436" viewBox="0,0,638.8214,505.8436"><defs><linearGradient x1="441.4296" y1="120.67611" x2="441.4296" y2="364.67611" gradientUnits="userSpaceOnUse" id="color-1"><stop offset="0" stop-color="#000000" stop-opacity="0"/><stop offset="1" stop-color="#000000"/></linearGradient><linearGradient x1="48.90608" y1="180.30587" x2="482.95312" y2="178.04635" gradientUnits="userSpaceOnUse" id="color-2"><stop offset="0" stop-color="#000000" stop-opacity="0"/><stop offset="1" stop-color="#000000"/></linearGradient></defs><g transform="translate(-44.6082,63.94247)"><g data-paper-data="{&quot;isPaintingLayer&quot;:true}" fill-rule="nonzero" stroke-linecap="butt" stroke-linejoin="miter" stroke-miterlimit="10" stroke-dasharray="" stroke-dashoffset="0" style="mix-blend-mode: normal"><g stroke="none"><path d="M240.55397,387.03881l-25.40513,-13.28158l49.92042,-95.48826l25.40513,13.28158z" fill="#aeaeae" stroke-width="NaN"/><path d="M271.25741,307.52322l-12.98983,-25.55553l96.05358,-48.82384l12.98983,25.55553z" fill="#aeaeae" stroke-width="NaN"/><path d="M233.66641,318.05109c0,0 10.15993,-29.44704 21.235,-40.30406c11.18151,-10.96136 45.53778,-25.15404 45.53778,-25.15404l22.88268,32.0854l-64.14343,64.14343z" fill="#dac175" stroke-width="0"/><g fill="#dac175" stroke-width="0"><path d="M201.73856,371.81889c5.52782,-13.47223 20.9304,-19.91246 34.40263,-14.38464c13.47223,5.52782 19.91246,20.9304 14.38464,34.40263c-5.52782,13.47223 -15.21395,3.58528 -28.68618,-1.94253c-13.47223,-5.52782 -25.62891,-4.60322 -20.1011,-18.07546z"/><path d="M196.90781,395.96948l7.96413,-17.3441l8.36234,3.83985l-7.96413,17.3441z"/><path d="M208.99033,396.0335c0,4.1409 -3.20427,7.49776 -7.15695,7.49776c-3.95268,0 -7.15696,-3.35686 -7.15696,-7.49776c0,-4.1409 3.20428,-7.49776 7.15696,-7.49776c3.95268,0 7.15695,3.35686 7.15695,7.49776z"/><path d="M194.00941,415.76638l2.21994,-19.60989l9.16269,0.84741l-0.96044,18.4621c0,0 -3.50057,5.5749 -5.16682,5.62293c-1.79781,0.05181 -5.25537,-5.32255 -5.25537,-5.32255z"/><path d="M212.42953,399.22214l7.96413,-17.3441l8.36234,3.83985l-7.96413,17.3441z"/><path d="M223.48963,400.99019c0,4.1409 -3.20427,7.49776 -7.15695,7.49776c-3.95268,0 -7.15696,-3.35686 -7.15696,-7.49776c0,-4.1409 3.20428,-7.49776 7.15696,-7.49776c3.95268,0 7.15695,3.35686 7.15695,7.49776z"/><path d="M209.19032,421.7455l2.21994,-19.60989l9.16269,0.84741l-0.96044,18.4621c0,0 -3.50057,5.5749 -5.16682,5.62293c-1.79781,0.05181 -5.25537,-5.32255 -5.25537,-5.32255z"/><path d="M227.61044,404.86044l7.96413,-17.3441l8.36234,3.83985l-7.96413,17.3441z"/><path d="M239.35216,407.31011c0,4.1409 -3.20427,7.49776 -7.15695,7.49776c-3.95268,0 -7.15696,-3.35686 -7.15696,-7.49776c0,-4.1409 3.20428,-7.49776 7.15696,-7.49776c3.95268,0 7.15695,3.35686 7.15695,7.49776z"/><path d="M226.07527,428.40622l2.21994,-19.60989l9.16269,0.84741l-0.96044,18.4621c0,0 -3.50057,5.5749 -5.16682,5.62293c-1.79781,0.05181 -5.25537,-5.32255 -5.25537,-5.32255z"/><path d="M250.6001,402.69632l-10.84548,-15.70417l7.57165,-5.22907l10.84548,15.70417z" data-paper-data="{&quot;index&quot;:null}"/><path d="M252.03404,390.99808c3.89304,-0.68403 7.62989,2.06765 8.3465,6.14607c0.71661,4.07842 -1.8584,7.93916 -5.75143,8.62319c-3.89304,0.68403 -7.62988,-2.06766 -8.3465,-6.14608c-0.71661,-4.07842 1.85839,-7.93915 5.75143,-8.62319z" data-paper-data="{&quot;index&quot;:null}"/><path d="M260.19744,422.61558c-1.64942,0.24106 -6.06195,-4.64393 -6.06195,-4.64393l-4.14095,-18.01733l8.8778,-2.42029l5.58007,18.92984c0,0 -2.47532,5.89163 -4.25497,6.15172z" data-paper-data="{&quot;index&quot;:null}"/></g></g><g stroke="none"><path d="M503.97734,297.8039l25.40513,-13.28158l49.92042,95.48826l-25.40513,13.28158z" data-paper-data="{&quot;index&quot;:null}" fill="#aeaeae" stroke-width="NaN"/><path d="M428.26274,262.70873l12.98983,-25.55553l96.05358,48.82384l-12.98983,25.55553z" data-paper-data="{&quot;index&quot;:null}" fill="#aeaeae" stroke-width="NaN"/><g data-paper-data="{&quot;index&quot;:null}" fill="#dac175" stroke-width="0"><path d="M569.52895,398.06633c-13.47223,5.52782 -23.15836,15.41477 -28.68618,1.94253c-5.52782,-13.47223 0.91241,-28.87482 14.38464,-34.40263c13.47223,-5.52782 28.87482,0.91241 34.40263,14.38464c5.52782,13.47223 -6.62887,12.54764 -20.1011,18.07546z"/><path d="M586.09846,407.98131l-7.96413,-17.3441l8.36234,-3.83985l7.96413,17.3441z"/><path d="M589.53522,396.70772c3.95268,0 7.15696,3.35686 7.15696,7.49776c0,4.1409 -3.20428,7.49776 -7.15696,7.49776c-3.95268,0 -7.15695,-3.35686 -7.15695,-7.49776c0,-4.1409 3.20427,-7.49776 7.15695,-7.49776z"/><path d="M592.10383,429.26091c-1.66625,-0.04803 -5.16682,-5.62293 -5.16682,-5.62293l-0.96044,-18.4621l9.16269,-0.84741l2.21994,19.60989c0,0 -3.45756,5.37437 -5.25537,5.32255z"/><path d="M570.57674,411.23397l-7.96413,-17.3441l8.36234,-3.83985l7.96413,17.3441z"/><path d="M575.03592,401.66441c3.95268,0 7.15696,3.35686 7.15696,7.49776c0,4.1409 -3.20428,7.49776 -7.15696,7.49776c-3.95268,0 -7.15695,-3.35686 -7.15695,-7.49776c0,-4.1409 3.20427,-7.49776 7.15695,-7.49776z"/><path d="M576.92291,435.24004c-1.66625,-0.04803 -5.16682,-5.62293 -5.16682,-5.62293l-0.96044,-18.4621l9.16269,-0.84741l2.21994,19.60989c0,0 -3.45756,5.37437 -5.25537,5.32255z"/><path d="M555.39583,416.87227l-7.96413,-17.3441l8.36234,-3.83985l7.96413,17.3441z"/><path d="M559.1734,407.98434c3.95268,0 7.15696,3.35686 7.15696,7.49776c0,4.1409 -3.20428,7.49776 -7.15696,7.49776c-3.95268,0 -7.15695,-3.35686 -7.15695,-7.49776c0,-4.1409 3.20427,-7.49776 7.15695,-7.49776z"/><path d="M560.03797,441.90076c-1.66625,-0.04803 -5.16682,-5.62293 -5.16682,-5.62293l-0.96044,-18.4621l9.16269,-0.84741l2.21994,19.60989c0,0 -3.45756,5.37437 -5.25537,5.32255z"/><path d="M533.19685,405.63924l10.84548,-15.70417l7.57165,5.22907l-10.84548,15.70417z" data-paper-data="{&quot;index&quot;:null}"/><path d="M545.08599,407.79324c-0.71661,4.07842 -4.45346,6.83011 -8.3465,6.14608c-3.89304,-0.68403 -6.46805,-4.54477 -5.75143,-8.62319c0.71661,-4.07842 4.45347,-6.83011 8.3465,-6.14607c3.89304,0.68403 6.46804,4.54476 5.75143,8.62319z" data-paper-data="{&quot;index&quot;:null}"/><path d="M526.9162,424.63585l5.58007,-18.92984l8.8778,2.42029l-4.14095,18.01733c0,0 -4.41253,4.88499 -6.06195,4.64393c-1.77965,-0.26009 -4.25497,-6.15172 -4.25497,-6.15172z" data-paper-data="{&quot;index&quot;:null}"/></g><path d="M530.04578,347.5445l-64.14343,-64.14343l22.88268,-32.0854c0,0 34.35627,14.19268 45.53778,25.15404c11.07507,10.85701 21.235,40.30406 21.235,40.30406z" data-paper-data="{&quot;index&quot;:null}" fill="#dac175" stroke-width="0"/></g><g stroke="none"><path d="M468.0797,313.32517c0,30.18793 24.9503,81.21192 10.44821,102.02046c-16.66634,23.91396 -58.45297,21.33092 -85.34012,21.33092c-22.06473,0 -59.91783,0.15149 -75.67626,-16.69789c-20.1531,-21.5483 -2.15258,-64.3692 -2.15258,-100.77962c0,-29.13427 5.55434,-55.79149 16.22755,-76.3217c13.09567,-25.18986 33.89756,-41.15581 61.6013,-41.15581c50.28281,0 74.89191,46.72259 74.89191,111.60363z" fill="#dac175" stroke-width="NaN"/><path d="M449.51628,329.52622c0,16.41448 6.68244,37.04821 1.45041,50.11663c-9.97422,24.91333 -37.70754,36.26388 -58.30289,36.26388c-20.00242,0 -47.28795,-8.64339 -57.4215,-32.37003c-5.77357,-13.51821 0.56902,-36.69511 0.56902,-54.01049c0,-23.26661 2.52851,-44.38475 12.37396,-59.91602c10.342,-16.31456 28.39299,-26.4645 44.47852,-26.4645c11.52949,0 25.78314,4.33307 34.74358,13.29455c15.44192,15.4437 22.1089,42.897 22.1089,73.08597z" fill="#c8b16c" stroke-width="0"/></g><g><path d="M332.39947,208.95583l-6.27898,-34.47427l132.75553,-7.17597l-14.35195,42.54724c0,0 -31.05769,19.4001 -51.16623,18.79533c-19.64763,-0.59091 -60.95837,-19.69233 -60.95837,-19.69233z" fill="#000000" stroke="none" stroke-width="0"/><path d="M362.00037,209.46443c0,5.94476 -4.50827,10.76396 -10.06951,10.76396c-5.56124,0 -10.06953,-4.81921 -10.06953,-10.76396c0,-5.94476 4.50827,-10.76396 10.06953,-10.76396c5.56124,0 10.06951,4.81919 10.06951,10.76396z" fill="#9e9e9e" stroke="none" stroke-width="0"/><path d="M382.63128,216.6404c0,5.94477 -4.50827,10.76396 -10.06951,10.76396c-5.56124,0 -10.06951,-4.81919 -10.06951,-10.76396c0,-5.94477 4.50827,-10.76396 10.06951,-10.76396c5.56124,0 10.06951,4.81919 10.06951,10.76396z" fill="#9e9e9e" stroke="none" stroke-width="0"/><path d="M406.8502,222.02238c0,5.94477 -4.50827,10.76396 -10.06951,10.76396c-5.56124,0 -10.06951,-4.81919 -10.06951,-10.76396c0,-5.94477 4.50827,-10.76396 10.06951,-10.76396c5.56124,0 10.06951,4.81919 10.06951,10.76396z" fill="#9e9e9e" stroke="none" stroke-width="0"/><path d="M429.27512,214.84642c0,5.94477 -4.50827,10.76395 -10.06951,10.76395c-5.56124,0 -10.06951,-4.81918 -10.06951,-10.76395c0,-5.94477 4.50827,-10.76396 10.06951,-10.76396c5.56124,0 10.06951,4.81919 10.06951,10.76396z" fill="#9e9e9e" stroke="none" stroke-width="0"/><path d="M450.02272,196.60781c2.29459,5.48408 -0.00421,11.66994 -5.13449,13.81649c-5.13027,2.14655 -11.14931,-0.55909 -13.44389,-6.04316c-2.29459,-5.48408 0.00421,-11.66994 5.13449,-13.81649c5.13027,-2.14653 11.14931,0.55908 13.44388,6.04317z" fill="#9e9e9e" stroke="none" stroke-width="0"/><path d="M435.55409,183.90002c0,6.68786 -4.50827,12.10946 -10.06951,12.10946c-5.56124,0 -10.06951,-5.4216 -10.06951,-12.10946c0,-6.68786 4.50827,-12.10946 10.06951,-12.10946c5.56124,0 10.06951,5.4216 10.06951,12.10946z" fill="#9e9e9e" stroke="none" stroke-width="0"/><path d="M413.12918,185.69402c0,6.68786 -4.50827,12.10945 -10.06951,12.10945c-5.56124,0 -10.06953,-5.42159 -10.06953,-12.10945c0,-6.68786 4.50827,-12.10945 10.06953,-12.10945c5.56124,0 10.06951,5.42159 10.06951,12.10945z" fill="#9e9e9e" stroke="none" stroke-width="0"/><path d="M392.49825,184.79702c0,6.68786 -4.50827,12.10945 -10.06951,12.10945c-5.56124,0 -10.06951,-5.42159 -10.06951,-12.10945c0,-6.68786 4.50827,-12.10945 10.06951,-12.10945c5.56124,0 10.06951,5.42159 10.06951,12.10945z" fill="#9e9e9e" stroke="none" stroke-width="0"/><path d="M371.86733,183.00302c0,6.68786 -4.50827,12.10945 -10.06951,12.10945c-5.56124,0 -10.06951,-5.42159 -10.06951,-12.10945c0,-6.68786 4.50827,-12.10945 10.06951,-12.10945c5.56124,0 10.06951,5.42159 10.06951,12.10945z" fill="#9e9e9e" stroke="none" stroke-width="0"/><path d="M354.82439,177.62104c0,6.68786 -4.50827,12.10945 -10.06951,12.10945c-5.56124,0 -10.06953,-5.42159 -10.06953,-12.10945c0,-6.68786 4.50827,-12.10946 10.06953,-12.10946c5.56124,0 10.06951,5.4216 10.06951,12.10946z" fill="#9e9e9e" stroke="none" stroke-width="0"/><path d="M341.36944,217.5374c-19.73271,-10.32526 -19.00133,-31.72079 -20.37492,-42.19243c-2.38322,-18.16848 3.33199,-26.87633 3.33199,-26.87633c0,0 -2.63227,28.45616 13.90455,46.22542c15.27604,16.41451 39.41082,28.54137 51.57696,28.25678c12.60983,-0.29497 40.52005,-14.7804 56.58316,-32.25615c16.78275,-18.25866 16.07283,-41.32906 16.07283,-41.32906c0,0 7.38731,53.35758 -21.52793,69.06875c-19.95618,10.84325 -34.17036,22.0495 -57.69292,16.4459c-10.56014,-2.51566 -25.1519,-8.59311 -41.8737,-17.3429z" fill="#c8b16c" stroke="none" stroke-width="0"/><path d="M489.91054,49.16178l-22.92475,26.42457l-17.61637,-15.28315l22.92474,-26.42457z" fill="#aeaeae" stroke="#aeaeae" stroke-width="2"/><path d="M314.94235,73.05804l-20.06839,-28.65416l19.10278,-13.37893l20.06839,28.65416z" fill="#aeaeae" stroke="#aeaeae" stroke-width="2"/><path d="M470.98547,102.27332c0,26.23002 3.27492,54.99924 -15.41998,70.20395c-13.9654,11.35818 -46.93021,12.76825 -66.20672,12.76825c-22.44368,0 -58.0207,-2.92832 -72.7769,-17.82966c-14.88364,-15.03003 -8.8498,-42.13187 -8.8498,-65.14252c0,-45.82427 36.54553,-82.9722 81.62672,-82.9722c45.08118,0 81.6267,37.14793 81.6267,82.9722z" fill="#dac175" stroke="#dac175" stroke-width="2"/><path d="M385.32228,101.61909c0,21.41572 -15.26077,38.77659 -34.08588,38.77659c-18.82511,0 -34.08588,-17.36087 -34.08588,-38.77659c0,-21.41572 15.26077,-38.77658 34.08588,-38.77658c18.82511,0 34.08588,17.36087 34.08588,38.77659z" fill="#000000" stroke="#c8b16c" stroke-width="2"/><path d="M459.773,99.82509c0,21.41572 -15.26077,38.77661 -34.08588,38.77661c-18.82511,0 -34.08588,-17.36088 -34.08588,-38.77661c0,-21.41572 15.26077,-38.77659 34.08588,-38.77659c18.82511,0 34.08588,17.36087 34.08588,38.77659z" fill="#000000" stroke="#c8b16c" stroke-width="2"/><path d="M453.49404,99.81178c0,16.4691 -12.61727,29.81993 -28.18147,29.81993c-15.5642,0 -28.18147,-13.35083 -28.18147,-29.81992c0,-16.46908 12.61727,-29.81992 28.18147,-29.81992c15.5642,0 28.18147,13.35083 28.18147,29.81992z" fill="#ffffff" stroke="#ffffff" stroke-width="2"/><path d="M378.1463,102.05428c0,15.72599 -12.04798,28.47443 -26.9099,28.47443c-14.86193,0 -26.9099,-12.74844 -26.9099,-28.47443c0,-15.72599 12.04796,-28.47443 26.9099,-28.47443c14.86193,0 26.9099,12.74844 26.9099,28.47443z" fill="#ffffff" stroke="#ffffff" stroke-width="2"/><path d="M447.66355,153.85063c0,7.03916 3.02876,15.643 -1.87493,21.45969c-1.14388,1.35687 -2.57298,3.50785 -4.35809,4.62653c-10.48942,6.57341 -34.48539,7.10266 -51.17476,7.10266c-18.84088,0 -40.94386,-0.76224 -51.41117,-8.86681c-7.14708,-5.53381 -5.99662,-16.88475 -5.99662,-24.32207c0,-18.32972 25.70235,-33.18888 57.40779,-33.18888c31.70545,0 57.40779,14.85916 57.40779,33.18888z" fill="#c8b16c" stroke="#dac175" stroke-width="2"/><path d="M324.8762,2.4906c2.88673,9.50027 2.10869,21.64439 1.48594,30.34695c-1.36494,19.07437 3.74965,19.29412 -10.91685,23.75065c-5.09562,1.54834 -10.31109,5.24054 -12.51486,5.05961c-2.65664,-0.21811 -20.99317,-5.74214 -26.6601,-10.5086c-9.33575,-7.85228 -19.88765,-17.05867 -24.25329,-31.42603c-9.21388,-30.32306 0.63085,-60.16577 21.98885,-66.65555c21.35798,-6.48978 41.65641,19.1099 50.87029,49.43296z" fill="#dac175" stroke="#dac175" stroke-width="2"/><path d="M527.41392,42.87047c-6.55498,7.45793 -18.36297,14.88647 -26.08842,18.94106c-16.93275,8.88691 -22.2305,9.97827 -33.74402,-0.14127c-4.00017,-3.51587 -8.05257,-5.94985 -9.05959,-7.91842c-1.21394,-2.3731 -3.2206,-5.78925 -2.15395,-13.11697c1.75721,-12.07172 6.23952,-38.63701 16.15267,-49.91572c20.92221,-23.80429 49.69034,-31.33817 66.45685,-16.60164c16.76651,14.73652 9.35868,44.9487 -11.56355,68.75299z" fill="#dac175" stroke="#dac175" stroke-width="2"/><path d="M318.48184,-1.38291c9.14269,22.43186 3.53704,45.922 -12.52055,52.46669c-16.05759,6.54469 -36.48646,-6.33442 -45.62914,-28.76629c-9.14269,-22.43186 -3.53703,-45.92202 12.52056,-52.4667c16.05759,-6.54469 36.48646,6.33443 45.62914,28.76629z" fill="#d98787" stroke="#dac175" stroke-width="2"/><path d="M527.15572,37.07695c-15.44951,19.92474 -39.80318,27.3139 -54.39545,16.50418c-14.59226,-10.80974 -13.89732,-35.72494 1.55219,-55.64968c15.4495,-19.92474 39.80317,-27.31392 54.39543,-16.50419c14.59225,10.80974 13.89732,35.72495 -1.55219,55.64968z" fill="#d98787" stroke="#dac175" stroke-width="2"/><path d="M406.8502,125.94095c0,4.09305 -2.92845,5.75832 -5.47933,8.61539c-3.04186,3.40698 -6.13039,7.63334 -11.1151,7.63334c-5.51996,0 -6.95327,-2.63903 -9.97011,-6.69885c-1.99205,-2.68072 -6.62432,-5.98093 -6.62432,-9.54988c0,-8.97392 6.73814,-8.64294 15.903,-8.64294c9.16486,0 17.28587,-0.33098 17.28587,8.64294z" fill="#d98787" stroke="#d98787" stroke-width="2"/><path d="M351.6849,148.46864c0,-1.23849 1.00401,-2.2425 2.2425,-2.2425c1.23849,0 2.2425,1.00401 2.2425,2.2425c0,1.23849 -1.00401,2.2425 -2.2425,2.2425c-1.23849,0 -2.2425,-1.00401 -2.2425,-2.2425z" fill="#000000" stroke="none" stroke-width="0.5"/><path d="M340.92094,161.0266c0,-1.23849 1.00401,-2.2425 2.2425,-2.2425c1.23849,0 2.24248,1.00401 2.24248,2.2425c0,1.23849 -1.00399,2.24248 -2.24248,2.24248c-1.23849,0 -2.2425,-1.00399 -2.2425,-2.24248z" fill="#000000" stroke="none" stroke-width="0.5"/><path d="M360.65487,158.3356c0,-1.23849 1.00401,-2.2425 2.2425,-2.2425c1.23849,0 2.2425,1.00401 2.2425,2.2425c0,1.23849 -1.00401,2.24248 -2.2425,2.24248c-1.23849,0 -2.2425,-1.00399 -2.2425,-2.24248z" fill="#000000" stroke="none" stroke-width="0.5"/><path d="M420.75366,143.98366c0,-1.23849 1.00401,-2.2425 2.2425,-2.2425c1.23849,0 2.2425,1.00401 2.2425,2.2425c0,1.23849 -1.00401,2.24248 -2.2425,2.24248c-1.23849,0 -2.2425,-1.00399 -2.2425,-2.24248z" fill="#000000" stroke="none" stroke-width="0.5"/><path d="M407.2987,160.12961c0,-1.23849 1.00399,-2.2425 2.24248,-2.2425c1.23849,0 2.2425,1.00401 2.2425,2.2425c0,1.23849 -1.00401,2.2425 -2.2425,2.2425c-1.23849,0 -2.24248,-1.00401 -2.24248,-2.2425z" fill="#000000" stroke="none" stroke-width="0.5"/><path d="M430.62061,161.0266c0,-1.23849 1.00401,-2.2425 2.2425,-2.2425c1.23849,0 2.2425,1.00401 2.2425,2.2425c0,1.23849 -1.00401,2.24248 -2.2425,2.24248c-1.23849,0 -2.2425,-1.00399 -2.2425,-2.24248z" fill="#000000" stroke="none" stroke-width="0.5"/><path d="M368.27934,102.04907c0,10.77489 -7.76425,19.50968 -17.34194,19.50968c-9.57768,0 -17.34194,-8.73478 -17.34194,-19.50968c0,-10.77489 7.76425,-19.50968 17.34194,-19.50968c9.57768,0 17.34194,8.73479 17.34194,19.50968z" fill="#000000" stroke="#a7ff88" stroke-width="12.5"/><path d="M442.73007,101.15207c0,10.7749 -7.76425,19.50968 -17.34193,19.50968c-9.57768,0 -17.34194,-8.73478 -17.34194,-19.50968c0,-10.77489 7.76425,-19.50968 17.34194,-19.50968c9.57768,0 17.34193,8.73478 17.34193,19.50968z" fill="#000000" stroke="#a7ff88" stroke-width="12.5"/><path d="M367.38235,86.57587c0,2.97239 -2.81121,5.38198 -6.27898,5.38198c-3.46777,0 -6.27898,-2.4096 -6.27898,-5.38198c0,-2.97239 2.81119,-5.38198 6.27898,-5.38198c3.46777,0 6.27898,2.4096 6.27898,5.38198z" fill="#ffffff" stroke="none" stroke-width="0"/><path d="M344.06042,116.17677c0,2.97239 -2.81119,5.38198 -6.27897,5.38198c-3.46777,0 -6.27898,-2.4096 -6.27898,-5.38198c0,-2.97239 2.81119,-5.38198 6.27898,-5.38198c3.46777,0 6.27897,2.4096 6.27897,5.38198z" fill="#ffffff" stroke="none" stroke-width="0"/><path d="M438.24509,119.76475c0,2.97239 -2.81119,5.38198 -6.27898,5.38198c-3.46777,0 -6.27898,-2.4096 -6.27898,-5.38198c0,-2.97239 2.81119,-5.38197 6.27898,-5.38197c3.46777,0 6.27898,2.40958 6.27898,5.38198z" fill="#ffffff" stroke="none" stroke-width="0"/><path d="M421.20214,90.16387c0,2.97239 -2.81119,5.38198 -6.27898,5.38198c-3.46777,0 -6.27897,-2.40958 -6.27897,-5.38197c0,-2.97239 2.81119,-5.38198 6.27897,-5.38198c3.46777,0 6.27898,2.4096 6.27898,5.38198z" fill="#ffffff" stroke="none" stroke-width="0"/><path d="M322.63803,98.23684c0,0 1.6342,-4.87794 2.14858,-7.65554c0.82676,-4.46447 10.40939,-17.46036 10.40939,-17.46036c0,0 9.45089,-2.97841 14.28776,-3.1255c4.99014,-0.15175 15.20761,2.2285 15.20761,2.2285l19.73393,25.11591z" fill="#000000" stroke="none" stroke-width="0"/><path d="M395.29477,94.64885c0,0 1.6342,-4.87796 2.14858,-7.65554c0.82676,-4.46447 10.40937,-17.46037 10.40937,-17.46037c0,0 9.10932,-2.91346 13.39326,-3.04374c5.32119,-0.16183 16.10211,2.14674 16.10211,2.14674c0,0 5.61456,3.96554 8.11259,7.14483c3.63988,4.63256 11.62134,17.97106 11.62134,17.97106z" fill="#000000" stroke="none" stroke-width="0"/></g><path d="M199.4296,364.67611v-244h484v244z" fill="url(#color-1)" stroke="none" stroke-width="0"/><path d="M487.25099,420.03516l-434.04706,2.25952l-8.59573,-483.97763l434.04706,-2.25952z" fill="url(#color-2)" stroke="none" stroke-width="0"/></g></g></svg>