<svg version="1.1" xmlns="http://www.w3.org/2000/svg" xmlns:xlink="http://www.w3.org/1999/xlink" width="492.82138" height="506.01589" viewBox="0,0,492.82138,506.01589"><defs><linearGradient x1="193.49819" y1="181.30587" x2="485.36103" y2="179.04635" gradientUnits="userSpaceOnUse" id="color-1"><stop offset="0" stop-color="#000000" stop-opacity="0"/><stop offset="1" stop-color="#000000"/></linearGradient><linearGradient x1="441.4296" y1="129.67611" x2="441.4296" y2="364.67611" gradientUnits="userSpaceOnUse" id="color-2"><stop offset="0" stop-color="#000000" stop-opacity="0"/><stop offset="1" stop-color="#000000"/></linearGradient></defs><g transform="translate(-190.60821,64.11475)"><g data-paper-data="{&quot;isPaintingLayer&quot;:true}" fill-rule="nonzero" stroke-linecap="butt" stroke-linejoin="miter" stroke-miterlimit="10" stroke-dasharray="" stroke-dashoffset="0" style="mix-blend-mode: normal"><g stroke="none"><path d="M240.55397,387.03881l-25.40513,-13.28158l49.92042,-95.48826l25.40513,13.28158z" fill="#aeaeae" stroke-width="NaN"/><path d="M271.25741,307.52322l-12.98983,-25.55553l96.05358,-48.82384l12.98983,25.55553z" fill="#aeaeae" stroke-width="NaN"/><path d="M233.66642,318.05109c0,0 10.15993,-29.44704 21.235,-40.30406c11.18151,-10.96136 45.53778,-25.15404 45.53778,-25.15404l22.88268,32.0854l-64.14343,64.14343z" fill="#dac175" stroke-width="0"/><g fill="#dac175" stroke-width="0"><path d="M201.73857,371.81889c5.52782,-13.47223 20.9304,-19.91246 34.40263,-14.38464c13.47223,5.52782 19.91246,20.9304 14.38464,34.40263c-5.52782,13.47223 -15.21395,3.58528 -28.68618,-1.94253c-13.47223,-5.52782 -25.62891,-4.60322 -20.1011,-18.07546z"/><path d="M196.90782,395.96948l7.96413,-17.3441l8.36234,3.83985l-7.96413,17.3441z"/><path d="M208.99034,396.0335c0,4.1409 -3.20427,7.49776 -7.15695,7.49776c-3.95268,0 -7.15696,-3.35686 -7.15696,-7.49776c0,-4.1409 3.20428,-7.49776 7.15696,-7.49776c3.95268,0 7.15695,3.35686 7.15695,7.49776z"/><path d="M194.00942,415.76638l2.21994,-19.60989l9.16269,0.84741l-0.96044,18.4621c0,0 -3.50057,5.5749 -5.16682,5.62293c-1.79781,0.05181 -5.25537,-5.32255 -5.25537,-5.32255z"/><path d="M212.42954,399.22214l7.96413,-17.3441l8.36234,3.83985l-7.96413,17.3441z"/><path d="M223.48964,400.99019c0,4.1409 -3.20427,7.49776 -7.15695,7.49776c-3.95268,0 -7.15696,-3.35686 -7.15696,-7.49776c0,-4.1409 3.20428,-7.49776 7.15696,-7.49776c3.95268,0 7.15695,3.35686 7.15695,7.49776z"/><path d="M209.19033,421.7455l2.21994,-19.60989l9.16269,0.84741l-0.96044,18.4621c0,0 -3.50057,5.5749 -5.16682,5.62293c-1.79781,0.05181 -5.25537,-5.32255 -5.25537,-5.32255z"/><path d="M227.61045,404.86044l7.96413,-17.3441l8.36234,3.83985l-7.96413,17.3441z"/><path d="M239.35217,407.31011c0,4.1409 -3.20427,7.49776 -7.15695,7.49776c-3.95268,0 -7.15696,-3.35686 -7.15696,-7.49776c0,-4.1409 3.20428,-7.49776 7.15696,-7.49776c3.95268,0 7.15695,3.35686 7.15695,7.49776z"/><path d="M226.07527,428.40622l2.21994,-19.60989l9.16269,0.84741l-0.96044,18.4621c0,0 -3.50057,5.5749 -5.16682,5.62293c-1.79781,0.05181 -5.25537,-5.32255 -5.25537,-5.32255z"/><path d="M250.60011,402.69632l-10.84548,-15.70417l7.57165,-5.22907l10.84548,15.70417z" data-paper-data="{&quot;index&quot;:null}"/><path d="M252.03405,390.99808c3.89304,-0.68403 7.62989,2.06765 8.3465,6.14607c0.71661,4.07842 -1.8584,7.93916 -5.75143,8.62319c-3.89304,0.68403 -7.62988,-2.06766 -8.3465,-6.14608c-0.71661,-4.07842 1.85839,-7.93915 5.75143,-8.62319z" data-paper-data="{&quot;index&quot;:null}"/><path d="M260.19744,422.61558c-1.64942,0.24106 -6.06195,-4.64393 -6.06195,-4.64393l-4.14095,-18.01733l8.8778,-2.42029l5.58007,18.92984c0,0 -2.47532,5.89163 -4.25497,6.15172z" data-paper-data="{&quot;index&quot;:null}"/></g></g><g stroke="none"><path d="M503.97735,297.8039l25.40513,-13.28158l49.92042,95.48826l-25.40513,13.28158z" data-paper-data="{&quot;index&quot;:null}" fill="#aeaeae" stroke-width="NaN"/><path d="M428.26275,262.70873l12.98983,-25.55553l96.05358,48.82384l-12.98983,25.55553z" data-paper-data="{&quot;index&quot;:null}" fill="#aeaeae" stroke-width="NaN"/><g data-paper-data="{&quot;index&quot;:null}" fill="#dac175" stroke-width="0"><path d="M569.52896,398.06633c-13.47223,5.52782 -23.15836,15.41477 -28.68618,1.94253c-5.52782,-13.47223 0.91241,-28.87482 14.38464,-34.40263c13.47223,-5.52782 28.87482,0.91241 34.40263,14.38464c5.52782,13.47223 -6.62887,12.54764 -20.1011,18.07546z"/><path d="M586.09847,407.98131l-7.96413,-17.3441l8.36234,-3.83985l7.96413,17.3441z"/><path d="M589.53523,396.70772c3.95268,0 7.15696,3.35686 7.15696,7.49776c0,4.1409 -3.20428,7.49776 -7.15696,7.49776c-3.95268,0 -7.15695,-3.35686 -7.15695,-7.49776c0,-4.1409 3.20427,-7.49776 7.15695,-7.49776z"/><path d="M592.10384,429.26091c-1.66625,-0.04803 -5.16682,-5.62293 -5.16682,-5.62293l-0.96044,-18.4621l9.16269,-0.84741l2.21994,19.60989c0,0 -3.45756,5.37437 -5.25537,5.32255z"/><path d="M570.57674,411.23397l-7.96413,-17.3441l8.36234,-3.83985l7.96413,17.3441z"/><path d="M575.03593,401.66441c3.95268,0 7.15696,3.35686 7.15696,7.49776c0,4.1409 -3.20428,7.49776 -7.15696,7.49776c-3.95268,0 -7.15695,-3.35686 -7.15695,-7.49776c0,-4.1409 3.20427,-7.49776 7.15695,-7.49776z"/><path d="M576.92292,435.24004c-1.66625,-0.04803 -5.16682,-5.62293 -5.16682,-5.62293l-0.96044,-18.4621l9.16269,-0.84741l2.21994,19.60989c0,0 -3.45756,5.37437 -5.25537,5.32255z"/><path d="M555.39584,416.87227l-7.96413,-17.3441l8.36234,-3.83985l7.96413,17.3441z"/><path d="M559.17341,407.98434c3.95268,0 7.15696,3.35686 7.15696,7.49776c0,4.1409 -3.20428,7.49776 -7.15696,7.49776c-3.95268,0 -7.15695,-3.35686 -7.15695,-7.49776c0,-4.1409 3.20427,-7.49776 7.15695,-7.49776z"/><path d="M560.03797,441.90076c-1.66625,-0.04803 -5.16682,-5.62293 -5.16682,-5.62293l-0.96044,-18.4621l9.16269,-0.84741l2.21994,19.60989c0,0 -3.45756,5.37437 -5.25537,5.32255z"/><path d="M533.19686,405.63924l10.84548,-15.70417l7.57165,5.22907l-10.84548,15.70417z" data-paper-data="{&quot;index&quot;:null}"/><path d="M545.086,407.79324c-0.71661,4.07842 -4.45346,6.83011 -8.3465,6.14608c-3.89304,-0.68403 -6.46805,-4.54477 -5.75143,-8.62319c0.71661,-4.07842 4.45347,-6.83011 8.3465,-6.14607c3.89304,0.68403 6.46804,4.54476 5.75143,8.62319z" data-paper-data="{&quot;index&quot;:null}"/><path d="M526.91621,424.63585l5.58007,-18.92984l8.8778,2.42029l-4.14095,18.01733c0,0 -4.41253,4.88499 -6.06195,4.64393c-1.77965,-0.26009 -4.25497,-6.15172 -4.25497,-6.15172z" data-paper-data="{&quot;index&quot;:null}"/></g><path d="M530.04579,347.5445l-64.14343,-64.14343l22.88268,-32.0854c0,0 34.35627,14.19268 45.53778,25.15404c11.07507,10.85701 21.235,40.30406 21.235,40.30406z" data-paper-data="{&quot;index&quot;:null}" fill="#dac175" stroke-width="0"/></g><g stroke="none"><path d="M468.07971,313.32517c0,30.18793 24.9503,81.21192 10.44821,102.02046c-16.66634,23.91396 -58.45297,21.33092 -85.34012,21.33092c-22.06473,0 -59.91783,0.15149 -75.67626,-16.69789c-20.1531,-21.5483 -2.15258,-64.3692 -2.15258,-100.77962c0,-29.13427 5.55434,-55.79149 16.22755,-76.3217c13.09567,-25.18986 33.89756,-41.15581 61.6013,-41.15581c50.28281,0 74.89191,46.72259 74.89191,111.60363z" fill="#dac175" stroke-width="NaN"/><path d="M449.51629,329.52622c0,16.41448 6.68244,37.04821 1.45041,50.11663c-9.97422,24.91333 -37.70754,36.26388 -58.30289,36.26388c-20.00242,0 -47.28795,-8.64339 -57.4215,-32.37003c-5.77357,-13.51821 0.56902,-36.69511 0.56902,-54.01049c0,-23.26661 2.52851,-44.38475 12.37396,-59.91602c10.342,-16.31456 28.39299,-26.4645 44.47852,-26.4645c11.52949,0 25.78314,4.33307 34.74358,13.29455c15.44192,15.4437 22.1089,42.897 22.1089,73.08597z" fill="#c8b16c" stroke-width="0"/></g><path d="M349.00788,228.11936l-17.07951,-30.59724l123.31877,-49.67904l0.16288,44.90233c0,0 -23.12497,28.39331 -42.35064,34.31721c-18.785,5.78812 -64.0515,1.05674 -64.0515,1.05674z" fill="#000000" stroke="none" stroke-width="0"/><path d="M377.18585,219.03786c1.92051,5.626 -0.78914,11.64322 -6.05218,13.43983c-5.26304,1.79661 -11.08648,-1.30775 -13.00698,-6.93373c-1.92051,-5.626 0.78914,-11.64322 6.0522,-13.43984c5.26304,-1.79661 11.08645,1.30773 13.00696,6.93374z" fill="#9e9e9e" stroke="none" stroke-width="0"/><path d="M399.02877,219.16404c1.92051,5.626 -0.78914,11.64322 -6.05218,13.43983c-5.26304,1.79661 -11.08645,-1.30773 -13.00696,-6.93374c-1.92051,-5.626 0.78914,-11.64322 6.05218,-13.43983c5.26304,-1.79661 11.08645,1.30773 13.00696,6.93374z" fill="#9e9e9e" stroke="none" stroke-width="0"/><path d="M423.68774,216.4333c1.92051,5.626 -0.78914,11.64322 -6.05218,13.43983c-5.26304,1.79661 -11.08645,-1.30773 -13.00696,-6.93374c-1.92051,-5.626 0.78914,-11.64322 6.05218,-13.43983c5.26304,-1.79661 11.08645,1.30773 13.00696,6.93374z" fill="#9e9e9e" stroke="none" stroke-width="0"/><path d="M442.59195,202.39755c1.92051,5.626 -0.78914,11.64321 -6.05218,13.43982c-5.26304,1.79661 -11.08645,-1.30772 -13.00696,-6.93373c-1.92051,-5.626 0.78914,-11.64322 6.05218,-13.43983c5.26304,-1.79661 11.08645,1.30773 13.00696,6.93374z" fill="#9e9e9e" stroke="none" stroke-width="0"/><path d="M456.33489,178.43422c3.94323,4.44873 3.76609,11.04554 -0.39563,14.73438c-4.16172,3.68883 -10.73209,3.07277 -14.67531,-1.37595c-3.94323,-4.44873 -3.76609,-11.04554 0.39563,-14.73438c4.16172,-3.68881 10.73209,-3.07278 14.6753,1.37596z" fill="#9e9e9e" stroke="none" stroke-width="0"/><path d="M438.53672,171.08206c2.16057,6.32925 -0.35446,12.91657 -5.6175,14.71318c-5.26304,1.79661 -11.28107,-1.87784 -13.44164,-8.20709c-2.16057,-6.32925 0.35446,-12.91657 5.6175,-14.71318c5.26304,-1.79661 11.28107,1.87784 13.44164,8.20709z" fill="#9e9e9e" stroke="none" stroke-width="0"/><path d="M417.89383,180.02443c2.16057,6.32925 -0.35447,12.91656 -5.61751,14.71317c-5.26304,1.79661 -11.28108,-1.87783 -13.44166,-8.20708c-2.16057,-6.32925 0.35447,-12.91656 5.61752,-14.71318c5.26304,-1.79661 11.28106,1.87783 13.44164,8.20708z" fill="#9e9e9e" stroke="none" stroke-width="0"/><path d="M398.07937,185.84053c2.16057,6.32925 -0.35447,12.91656 -5.61751,14.71317c-5.26304,1.79661 -11.28106,-1.87783 -13.44164,-8.20708c-2.16057,-6.32925 0.35447,-12.91656 5.61751,-14.71317c5.26304,-1.79661 11.28106,1.87783 13.44164,8.20708z" fill="#9e9e9e" stroke="none" stroke-width="0"/><path d="M377.97514,190.80773c2.16057,6.32925 -0.35447,12.91656 -5.61751,14.71317c-5.26304,1.79661 -11.28106,-1.87783 -13.44164,-8.20708c-2.16057,-6.32925 0.35447,-12.91656 5.61751,-14.71317c5.26304,-1.79661 11.28106,1.87783 13.44164,8.20708z" fill="#9e9e9e" stroke="none" stroke-width="0"/><path d="M360.10736,191.22021c2.16057,6.32925 -0.35447,12.91656 -5.61751,14.71317c-5.26304,1.79661 -11.28108,-1.87783 -13.44166,-8.20708c-2.16057,-6.32925 0.35446,-12.91657 5.61752,-14.71319c5.26304,-1.79661 11.28107,1.87784 13.44164,8.20709z" fill="#9e9e9e" stroke="none" stroke-width="0"/><path d="M360.26922,233.34295c-22.01029,-3.39678 -28.23014,-23.88134 -32.91303,-33.34772c-8.12492,-16.42434 -5.52931,-26.51162 -5.52931,-26.51162c0,0 6.70189,27.78069 28.09251,39.25477c19.75978,10.59928 46.51811,14.27893 57.93995,10.07922c11.83838,-4.35287 33.57238,-27.07822 43.12847,-48.80623c9.98422,-22.70143 1.85926,-44.30542 1.85926,-44.30542c0,0 24.22884,48.10995 1.9397,72.31999c-15.3831,16.70884 -25.21482,31.90622 -49.28636,34.20226c-10.8066,1.03078 -26.57931,-0.00679 -45.23116,-2.88528z" fill="#c8b16c" stroke="none" stroke-width="0"/><path d="M446.45013,26.0083l-13.15881,32.4137l-21.60912,-8.77252l13.1588,-32.4137z" fill="#aeaeae" stroke="#aeaeae" stroke-width="2"/><path d="M288.58383,105.14825l-28.24928,-20.63442l13.75628,-18.83286l28.24928,20.63442z" fill="#aeaeae" stroke="#aeaeae" stroke-width="2"/><path d="M445.698,82.38585c8.47384,24.82354 20.86731,50.99213 8.08687,71.4211c-9.5472,15.26079 -40.28886,27.24482 -58.53174,33.47227c-21.24022,7.25063 -55.85558,15.9728 -74.63455,6.63761c-18.94115,-9.41581 -21.98634,-37.0137 -29.42014,-58.7905c-14.80394,-43.36712 7.78101,-90.32949 50.44489,-104.89338c42.66388,-14.56388 89.25075,8.78578 104.05469,52.1529z" fill="#dac175" stroke="#dac175" stroke-width="2"/><path d="M364.41681,109.44096c6.91854,20.26738 -1.91535,41.62747 -19.73103,47.70909c-17.81569,6.08162 -37.86674,-5.41821 -44.78528,-25.6856c-6.91854,-20.26738 1.91535,-41.62746 19.73104,-47.70908c17.81569,-6.08162 37.86674,5.41821 44.78528,25.6856z" fill="#000000" stroke="#c8b16c" stroke-width="2"/><path d="M434.29583,83.69118c6.91854,20.26738 -1.91534,41.62749 -19.73103,47.70911c-17.81569,6.08162 -37.86674,-5.41822 -44.78529,-25.68562c-6.91854,-20.26738 1.91535,-41.62747 19.73103,-47.70909c17.81569,-6.08162 37.86674,5.41821 44.78528,25.6856z" fill="#000000" stroke="#c8b16c" stroke-width="2"/><path d="M440.28914,138.73188c2.27406,6.66171 7.91997,13.82574 5.15835,20.91471c-0.64419,1.65365 -1.30177,4.15098 -2.62976,5.78637c-7.80337,9.60964 -30.34167,17.86262 -46.13613,23.25427c-17.83061,6.08671 -38.99465,12.50591 -51.51895,8.21748c-8.55159,-2.92815 -11.12984,-14.04211 -13.53254,-21.08063c-5.92158,-17.34686 13.6022,-39.71263 43.60755,-49.95535c30.00537,-10.24273 59.1299,-4.4837 65.05148,12.86316z" fill="#c8b16c" stroke="#dac175" stroke-width="2"/><path d="M275.18757,35.1555c5.80109,8.05827 8.98803,19.80256 11.21012,28.23967c4.8704,18.49254 9.78173,17.04819 -2.65862,26.0039c-4.32218,3.1115 -8.06519,8.29063 -10.20925,8.83135c-2.58465,0.65184 -21.72254,1.34779 -28.62545,-1.33233c-11.37191,-4.41523 -24.33221,-9.71908 -33.10526,-21.90569c-18.51596,-25.72048 -18.84007,-57.14341 -0.72389,-70.1851c18.11616,-13.04168 45.59637,4.62773 64.11233,30.34821z" fill="#dac175" stroke="#dac175" stroke-width="2"/><path d="M479.91007,7.93853c-3.79414,9.17567 -12.56912,20.02056 -18.57045,26.35352c-13.1538,13.88066 -17.81491,16.62499 -31.98027,10.76761c-4.92151,-2.03505 -9.54293,-3.02936 -11.13192,-4.56704c-1.9155,-1.85368 -4.91818,-4.43838 -6.27601,-11.71777c-2.23689,-11.9921 -6.57708,-38.58098 -0.83917,-52.45745c12.11015,-29.28698 36.90181,-45.71069 57.53005,-37.18092c20.62823,8.52976 23.37794,39.51509 11.26777,68.80208z" fill="#dac175" stroke="#dac175" stroke-width="2"/><path d="M267.88471,33.55544c15.89926,18.27541 18.18289,42.31694 5.10065,53.69824c-13.08224,11.3813 -36.57641,5.79252 -52.47566,-12.48291c-15.89926,-18.27541 -18.18289,-42.31696 -5.10064,-53.69825c13.08224,-11.3813 36.57641,-5.79251 52.47566,12.48291z" fill="#d98787" stroke="#dac175" stroke-width="2"/><path d="M477.79407,2.53908c-8.18422,23.84745 -28.84489,38.70807 -46.14688,33.19214c-17.30199,-5.51595 -24.69339,-29.31967 -16.50917,-53.16713c8.18422,-23.84745 28.84487,-38.70809 46.14686,-33.19215c17.30198,5.51595 24.69339,29.31968 16.50917,53.16713z" fill="#d98787" stroke="#dac175" stroke-width="2"/><path d="M392.64777,125.50386c1.3223,3.87358 -0.91115,6.39561 -2.40224,9.92357c-1.7781,4.20699 -3.33565,9.20451 -8.05308,10.81486c-5.22397,1.78327 -7.43299,-0.25121 -11.59962,-3.11872c-2.75126,-1.89343 -8.20131,-3.52018 -9.35429,-6.89776c-2.8991,-8.49273 3.58465,-10.35631 12.25808,-13.3171c8.67343,-2.96079 16.25206,-5.89759 19.15116,2.59514z" fill="#d98787" stroke="#d98787" stroke-width="2"/><path d="M347.71827,164.64524c-0.40011,-1.17208 0.22571,-2.44661 1.39779,-2.84671c1.17208,-0.40011 2.44661,0.22571 2.84671,1.39779c0.40011,1.17208 -0.22571,2.44661 -1.39779,2.84671c-1.17208,0.40011 -2.44661,-0.22571 -2.84671,-1.39779z" fill="#000000" stroke="none" stroke-width="0.5"/><path d="M341.58845,180.00722c-0.40011,-1.17208 0.22571,-2.44661 1.39779,-2.84671c1.17208,-0.40011 2.44659,0.22572 2.8467,1.3978c0.40011,1.17208 -0.2257,2.44658 -1.39778,2.84669c-1.17208,0.40011 -2.4466,-0.2257 -2.84671,-1.39778z" fill="#000000" stroke="none" stroke-width="0.5"/><path d="M359.39487,171.08529c-0.40011,-1.17208 0.22571,-2.44661 1.39779,-2.84671c1.17208,-0.40011 2.44661,0.22571 2.84671,1.39779c0.40011,1.17208 -0.22572,2.44659 -1.3978,2.8467c-1.17208,0.40011 -2.4466,-0.2257 -2.84671,-1.39778z" fill="#000000" stroke="none" stroke-width="0.5"/><path d="M411.63457,138.08747c-0.40011,-1.17208 0.22571,-2.44661 1.39779,-2.84671c1.17208,-0.40011 2.44661,0.22571 2.84671,1.39779c0.40011,1.17208 -0.22572,2.44659 -1.3978,2.8467c-1.17208,0.40011 -2.4466,-0.2257 -2.84671,-1.39778z" fill="#000000" stroke="none" stroke-width="0.5"/><path d="M404.11718,157.7144c-0.40011,-1.17208 0.2257,-2.4466 1.39778,-2.84671c1.17208,-0.40011 2.44661,0.22571 2.84671,1.39779c0.40011,1.17208 -0.22571,2.44661 -1.39779,2.84671c-1.17208,0.40011 -2.44659,-0.22572 -2.8467,-1.3978z" fill="#000000" stroke="none" stroke-width="0.5"/><path d="M426.47832,151.02894c-0.40011,-1.17208 0.22571,-2.44661 1.39779,-2.84671c1.17208,-0.40011 2.44661,0.22571 2.84671,1.39779c0.40011,1.17208 -0.22572,2.44659 -1.3978,2.8467c-1.17208,0.40011 -2.4466,-0.2257 -2.84671,-1.39778z" fill="#000000" stroke="none" stroke-width="0.5"/><path d="M409.36396,95.51644c0.96026,2.81301 -0.92175,6.00157 -4.2036,7.12187c-3.28182,1.12029 -6.72074,-0.25191 -7.68099,-3.06491c-0.96026,-2.81301 0.92176,-6.00156 4.2036,-7.12186c3.28182,-1.12029 6.72073,0.2519 7.68099,3.06491z" fill="#ffffff" stroke="none" stroke-width="0"/><path d="M332.67204,120.00867c0.96026,2.81301 -0.92175,6.00157 -4.2036,7.12187c-3.28182,1.12029 -6.72072,-0.2519 -7.68098,-3.06491c-0.96026,-2.81301 0.92175,-6.00157 4.20359,-7.12187c3.28182,-1.12029 6.72074,0.25191 7.68099,3.06491z" fill="#ffffff" stroke="none" stroke-width="0"/><path d="M488.25101,421.03517l-291.86283,2.25952l-5.77996,-483.97763l291.86283,-2.25952z" fill="url(#color-1)" stroke="none" stroke-width="0"/><path d="M199.4296,364.67611v-235h484v235z" fill="url(#color-2)" stroke="none" stroke-width="0"/></g></g></svg>