<svg version="1.1" xmlns="http://www.w3.org/2000/svg" xmlns:xlink="http://www.w3.org/1999/xlink" width="499.42018" height="519.67647" viewBox="0,0,499.42018,519.67647"><defs><linearGradient x1="193.49819" y1="181.30587" x2="485.36102" y2="179.04635" gradientUnits="userSpaceOnUse" id="color-1"><stop offset="0" stop-color="#000000" stop-opacity="0"/><stop offset="1" stop-color="#000000"/></linearGradient><linearGradient x1="441.4296" y1="129.67611" x2="441.4296" y2="364.67611" gradientUnits="userSpaceOnUse" id="color-2"><stop offset="0" stop-color="#000000" stop-opacity="0"/><stop offset="1" stop-color="#000000"/></linearGradient></defs><g transform="translate(-184.00941,77.77534)"><g data-paper-data="{&quot;isPaintingLayer&quot;:true}" fill-rule="nonzero" stroke-linecap="butt" stroke-linejoin="miter" stroke-miterlimit="10" stroke-dasharray="" stroke-dashoffset="0" style="mix-blend-mode: normal"><g data-paper-data="{&quot;index&quot;:null}" stroke="none"><path d="M280.47439,245.32244l-25.40513,13.28158l-49.92042,-95.48826l25.40513,-13.28158z" fill="#aeaeae" stroke-width="NaN"/><path d="M357.31099,278.17361l-12.98983,25.55553l-96.05358,-48.82384l12.98983,-25.55553z" fill="#aeaeae" stroke-width="NaN"/><path d="M249.17844,188.05117l64.14343,64.14343l-22.88268,32.0854c0,0 -34.35627,-14.19268 -45.53778,-25.15404c-11.07507,-10.85702 -21.235,-40.30406 -21.235,-40.30406z" fill="#dac175" stroke-width="0"/><g fill="#dac175" stroke-width="0"><path d="M191.73855,165.0541c-5.52781,-13.47224 6.62887,-12.54764 20.1011,-18.07546c13.47223,-5.52781 23.15836,-15.41476 28.68618,-1.94253c5.52782,13.47223 -0.91241,28.87481 -14.38464,34.40263c-13.47223,5.52782 -28.87481,-0.91241 -34.40263,-14.38464z"/><path d="M195.27015,137.06366l7.96413,17.3441l-8.36234,3.83985l-7.96413,-17.3441z"/><path d="M191.83338,148.33725c-3.95268,0 -7.15696,-3.35686 -7.15696,-7.49776c0,-4.1409 3.20428,-7.49776 7.15696,-7.49776c3.95268,0 7.15695,3.35686 7.15695,7.49776c0,4.1409 -3.20427,7.49776 -7.15695,7.49776z"/><path d="M189.26478,115.78406c1.66625,0.04803 5.16682,5.62293 5.16682,5.62293l0.96044,18.4621l-9.16269,0.84741l-2.21994,-19.60989c0,0 3.45756,-5.37436 5.25537,-5.32255z"/><path d="M210.79187,133.811l7.96413,17.3441l-8.36234,3.83985l-7.96413,-17.3441z"/><path d="M206.33268,143.38056c-3.95268,0 -7.15696,-3.35686 -7.15696,-7.49776c0,-4.1409 3.20428,-7.49776 7.15696,-7.49776c3.95268,0 7.15695,3.35686 7.15695,7.49776c0,4.1409 -3.20427,7.49776 -7.15695,7.49776z"/><path d="M204.44569,109.80494c1.66625,0.04803 5.16682,5.62293 5.16682,5.62293l0.96044,18.4621l-9.16269,0.84741l-2.21994,-19.60989c0,0 3.45756,-5.37436 5.25537,-5.32255z"/><path d="M225.97278,128.1727l7.96413,17.3441l-8.36234,3.83985l-7.96413,-17.3441z"/><path d="M222.19521,137.06064c-3.95268,0 -7.15696,-3.35686 -7.15696,-7.49776c0,-4.1409 3.20428,-7.49776 7.15696,-7.49776c3.95268,0 7.15695,3.35686 7.15695,7.49776c0,4.1409 -3.20427,7.49776 -7.15695,7.49776z"/><path d="M221.33064,103.14422c1.66625,0.04803 5.16682,5.62293 5.16682,5.62293l0.96044,18.4621l-9.16269,0.84741l-2.21994,-19.60989c0,0 3.45756,-5.37436 5.25537,-5.32255z"/><path d="M248.17175,139.40574l-10.84548,15.70417l-7.57165,-5.22907l10.84548,-15.70417z" data-paper-data="{&quot;index&quot;:null}"/><path d="M242.03404,145.87492c-3.89304,-0.68404 -6.46804,-4.54477 -5.75143,-8.62319c0.71662,-4.07842 4.45346,-6.83011 8.3465,-6.14608c3.89303,0.68403 6.46804,4.54477 5.75143,8.62319c-0.71661,4.07842 -4.45346,6.8301 -8.3465,6.14607z" data-paper-data="{&quot;index&quot;:null}"/><path d="M250.19744,114.2574c1.77965,0.26009 4.25497,6.15172 4.25497,6.15172l-5.58007,18.92984l-8.8778,-2.42029l4.14095,-18.01733c0,0 4.41253,-4.88499 6.06195,-4.64393z" data-paper-data="{&quot;index&quot;:null}"/></g></g><g stroke="none"><path d="M503.97734,297.8039l25.40513,-13.28158l49.92042,95.48826l-25.40513,13.28158z" data-paper-data="{&quot;index&quot;:null}" fill="#aeaeae" stroke-width="NaN"/><path d="M428.26274,262.70873l12.98983,-25.55553l96.05358,48.82384l-12.98983,25.55553z" data-paper-data="{&quot;index&quot;:null}" fill="#aeaeae" stroke-width="NaN"/><g data-paper-data="{&quot;index&quot;:null}" fill="#dac175" stroke-width="0"><path d="M569.52895,398.06633c-13.47223,5.52782 -23.15836,15.41477 -28.68618,1.94253c-5.52782,-13.47223 0.91241,-28.87482 14.38464,-34.40263c13.47223,-5.52782 28.87482,0.91241 34.40263,14.38464c5.52782,13.47223 -6.62887,12.54764 -20.1011,18.07546z"/><path d="M586.09846,407.98131l-7.96413,-17.3441l8.36234,-3.83985l7.96413,17.3441z"/><path d="M589.53522,396.70772c3.95268,0 7.15696,3.35686 7.15696,7.49776c0,4.1409 -3.20428,7.49776 -7.15696,7.49776c-3.95268,0 -7.15695,-3.35686 -7.15695,-7.49776c0,-4.1409 3.20427,-7.49776 7.15695,-7.49776z"/><path d="M592.10383,429.26091c-1.66625,-0.04803 -5.16682,-5.62293 -5.16682,-5.62293l-0.96044,-18.4621l9.16269,-0.84741l2.21994,19.60989c0,0 -3.45756,5.37437 -5.25537,5.32255z"/><path d="M570.57674,411.23397l-7.96413,-17.3441l8.36234,-3.83985l7.96413,17.3441z"/><path d="M575.03592,401.66441c3.95268,0 7.15696,3.35686 7.15696,7.49776c0,4.1409 -3.20428,7.49776 -7.15696,7.49776c-3.95268,0 -7.15695,-3.35686 -7.15695,-7.49776c0,-4.1409 3.20427,-7.49776 7.15695,-7.49776z"/><path d="M576.92291,435.24004c-1.66625,-0.04803 -5.16682,-5.62293 -5.16682,-5.62293l-0.96044,-18.4621l9.16269,-0.84741l2.21994,19.60989c0,0 -3.45756,5.37437 -5.25537,5.32255z"/><path d="M555.39583,416.87227l-7.96413,-17.3441l8.36234,-3.83985l7.96413,17.3441z"/><path d="M559.1734,407.98434c3.95268,0 7.15696,3.35686 7.15696,7.49776c0,4.1409 -3.20428,7.49776 -7.15696,7.49776c-3.95268,0 -7.15695,-3.35686 -7.15695,-7.49776c0,-4.1409 3.20427,-7.49776 7.15695,-7.49776z"/><path d="M560.03797,441.90076c-1.66625,-0.04803 -5.16682,-5.62293 -5.16682,-5.62293l-0.96044,-18.4621l9.16269,-0.84741l2.21994,19.60989c0,0 -3.45756,5.37437 -5.25537,5.32255z"/><path d="M533.19685,405.63924l10.84548,-15.70417l7.57165,5.22907l-10.84548,15.70417z" data-paper-data="{&quot;index&quot;:null}"/><path d="M545.08599,407.79324c-0.71661,4.07842 -4.45346,6.83011 -8.3465,6.14608c-3.89304,-0.68403 -6.46805,-4.54477 -5.75143,-8.62319c0.71661,-4.07842 4.45347,-6.83011 8.3465,-6.14607c3.89304,0.68403 6.46804,4.54476 5.75143,8.62319z" data-paper-data="{&quot;index&quot;:null}"/><path d="M526.9162,424.63585l5.58007,-18.92984l8.8778,2.42029l-4.14095,18.01733c0,0 -4.41253,4.88499 -6.06195,4.64393c-1.77965,-0.26009 -4.25497,-6.15172 -4.25497,-6.15172z" data-paper-data="{&quot;index&quot;:null}"/></g><path d="M530.04578,347.5445l-64.14343,-64.14343l22.88268,-32.0854c0,0 34.35627,14.19268 45.53778,25.15404c11.07507,10.85701 21.235,40.30406 21.235,40.30406z" data-paper-data="{&quot;index&quot;:null}" fill="#dac175" stroke-width="0"/></g><g stroke="none"><path d="M468.0797,313.32517c0,30.18793 24.9503,81.21192 10.44821,102.02046c-16.66634,23.91396 -58.45297,21.33092 -85.34012,21.33092c-22.06473,0 -59.91783,0.15149 -75.67626,-16.69789c-20.1531,-21.5483 -2.15258,-64.3692 -2.15258,-100.77962c0,-29.13427 5.55434,-55.79149 16.22755,-76.3217c13.09567,-25.18986 33.89756,-41.15581 61.6013,-41.15581c50.28281,0 74.89191,46.72259 74.89191,111.60363z" fill="#dac175" stroke-width="NaN"/><path d="M449.51628,329.52622c0,16.41448 6.68244,37.04821 1.45041,50.11663c-9.97422,24.91333 -37.70754,36.26388 -58.30289,36.26388c-20.00242,0 -47.28795,-8.64339 -57.4215,-32.37003c-5.77357,-13.51821 0.56902,-36.69511 0.56902,-54.01049c0,-23.26661 2.52851,-44.38475 12.37396,-59.91602c10.342,-16.31456 28.39299,-26.4645 44.47852,-26.4645c11.52949,0 25.78314,4.33307 34.74358,13.29455c15.44192,15.4437 22.1089,42.897 22.1089,73.08597z" fill="#c8b16c" stroke-width="0"/></g><path d="M333.41947,183.80754l5.77459,-34.56233l127.33279,38.23462l-27.92054,35.1666c0,0 -35.79417,7.72798 -54.50806,0.34493c-18.28495,-7.21382 -50.67878,-39.18382 -50.67878,-39.18382z" fill="#000000" stroke="none" stroke-width="0"/><path d="M361.0967,194.31672c-2.01446,5.59304 -7.88906,8.59943 -13.12127,6.71492c-5.23221,-1.8845 -7.84072,-7.94628 -5.82626,-13.53931c2.01446,-5.59304 7.88906,-8.59943 13.12129,-6.71492c5.23221,1.8845 7.8407,7.94626 5.82624,13.53931z" fill="#9e9e9e" stroke="none" stroke-width="0"/><path d="M378.07532,208.0592c-2.01447,5.59305 -7.88906,8.59943 -13.12127,6.71492c-5.23221,-1.8845 -7.8407,-7.94626 -5.82624,-13.53931c2.01447,-5.59305 7.88906,-8.59943 13.12127,-6.71492c5.23221,1.8845 7.8407,7.94626 5.82624,13.53931z" fill="#9e9e9e" stroke="none" stroke-width="0"/><path d="M399.03758,221.32967c-2.01447,5.59305 -7.88906,8.59943 -13.12127,6.71492c-5.23221,-1.8845 -7.8407,-7.94626 -5.82624,-13.53931c2.01447,-5.59305 7.88906,-8.59943 13.12127,-6.71492c5.23221,1.8845 7.8407,7.94626 5.82624,13.53931z" fill="#9e9e9e" stroke="none" stroke-width="0"/><path d="M422.56741,222.17726c-2.01447,5.59305 -7.88905,8.59942 -13.12126,6.71491c-5.23221,-1.8845 -7.84071,-7.94625 -5.82624,-13.5393c2.01447,-5.59305 7.88906,-8.59943 13.12127,-6.71492c5.23221,1.8845 7.8407,7.94626 5.82624,13.53931z" fill="#9e9e9e" stroke="none" stroke-width="0"/><path d="M448.26789,212.04834c0.30048,5.93717 -3.95848,10.97807 -9.51262,11.25915c-5.55413,0.28109 -10.30021,-4.30411 -10.60068,-10.24127c-0.30048,-5.93717 3.95848,-10.97807 9.51262,-11.25915c5.55412,-0.28107 10.30021,4.3041 10.60067,10.24127z" fill="#9e9e9e" stroke="none" stroke-width="0"/><path d="M438.9615,195.1895c-2.26627,6.29218 -8.345,9.86532 -13.57721,7.98082c-5.23221,-1.8845 -7.63657,-8.51303 -5.3703,-14.8052c2.26627,-6.29218 8.345,-9.86532 13.57721,-7.98082c5.23221,1.8845 7.63657,8.51303 5.3703,14.8052z" fill="#9e9e9e" stroke="none" stroke-width="0"/><path d="M417.25543,189.27838c-2.26627,6.29218 -8.34499,9.86531 -13.57721,7.98081c-5.23221,-1.8845 -7.63659,-8.51302 -5.37032,-14.8052c2.26627,-6.29218 8.34499,-9.86531 13.57722,-7.9808c5.23221,1.8845 7.63657,8.51302 5.3703,14.80519z" fill="#9e9e9e" stroke="none" stroke-width="0"/><path d="M398.14908,181.44337c-2.26627,6.29218 -8.34499,9.86531 -13.57721,7.98081c-5.23221,-1.8845 -7.63657,-8.51302 -5.3703,-14.80519c2.26627,-6.29218 8.34499,-9.86531 13.57721,-7.98081c5.23221,1.8845 7.63657,8.51302 5.3703,14.80519z" fill="#9e9e9e" stroke="none" stroke-width="0"/><path d="M379.3467,172.76444c-2.26627,6.29218 -8.34499,9.86531 -13.57721,7.98081c-5.23221,-1.8845 -7.63657,-8.51302 -5.3703,-14.80519c2.26627,-6.29218 8.34499,-9.86531 13.57721,-7.98081c5.23221,1.8845 7.63657,8.51302 5.3703,14.80519z" fill="#9e9e9e" stroke="none" stroke-width="0"/><path d="M365.13585,161.92565c-2.26627,6.29218 -8.34499,9.86531 -13.57721,7.98081c-5.23221,-1.8845 -7.63659,-8.51302 -5.37032,-14.8052c2.26627,-6.29218 8.345,-9.86532 13.57723,-7.98081c5.23221,1.8845 7.63657,8.51303 5.3703,14.8052z" fill="#9e9e9e" stroke="none" stroke-width="0"/><path d="M338.95075,194.92098c-15.06638,-16.40107 -7.1281,-36.28291 -4.87196,-46.60046c3.91442,-17.90114 12.24227,-24.15711 12.24227,-24.15711c0,0 -12.11929,25.88058 -2.58222,48.20226c8.80996,20.61985 27.40746,40.20763 38.95024,44.06254c11.96373,3.9955 43.13124,-0.17515 64.16588,-11.17375c21.977,-11.49133 29.12681,-33.43735 29.12681,-33.43735c0,0 -11.1307,52.704 -43.65913,57.6873c-22.44987,3.43929 -39.62046,9.16586 -59.85246,-4.07715c-9.08289,-5.94527 -20.75191,-16.60777 -33.51938,-30.50629z" fill="#c8b16c" stroke="none" stroke-width="0"/><path d="M535.75988,86.84242l-30.52275,17.09281l-11.3952,-20.34848l30.52274,-17.09281z" fill="#aeaeae" stroke="#aeaeae" stroke-width="2"/><path d="M363.04602,50.0345l-9.1712,-33.7593l22.50621,-6.11413l9.1712,33.7593z" fill="#aeaeae" stroke="#aeaeae" stroke-width="2"/><path d="M499.95693,130.39862c-8.8884,24.67813 -15.55609,52.85499 -38.29724,60.82509c-16.98802,5.95381 -48.4803,-3.89012 -66.61633,-10.42223c-21.11581,-7.60535 -53.59563,-22.41618 -62.42926,-41.43623c-8.90992,-19.18431 5.95076,-42.63803 13.74823,-64.28727c15.52818,-43.1131 62.4996,-65.67923 104.91358,-50.40286c42.41397,15.27638 64.20921,62.61042 48.68103,105.72352z" fill="#dac175" stroke="#dac175" stroke-width="2"/><path d="M419.58365,100.75495c-7.25701,20.14867 -27.49785,31.31107 -45.20918,24.93192c-17.71133,-6.37915 -26.18624,-27.88419 -18.92923,-48.03286c7.25701,-20.14867 27.49785,-31.31106 45.20918,-24.93191c17.71133,6.37915 26.18624,27.88419 18.92923,48.03286z" fill="#000000" stroke="#c8b16c" stroke-width="2"/><path d="M490.23745,124.29574c-7.25701,20.14867 -27.49786,31.31109 -45.20919,24.93194c-17.71133,-6.37915 -26.18623,-27.8842 -18.92922,-48.03288c7.25701,-20.14867 27.49785,-31.31107 45.20918,-24.93192c17.71133,6.37915 26.18624,27.88419 18.92923,48.03286z" fill="#000000" stroke="#c8b16c" stroke-width="2"/><path d="M460.53716,171.02143c-2.38532,6.62269 -2.45128,15.74383 -9.03591,19.55469c-1.536,0.88897 -3.60943,2.42842 -5.66801,2.876c-12.09631,2.63001 -34.85191,-5.00341 -50.55386,-10.65883c-17.72617,-6.38449 -38.26314,-14.59153 -45.36481,-25.76359c-4.84902,-7.62829 0.0798,-17.91781 2.60003,-24.9151c6.21128,-17.24525 35.42819,-22.51568 65.25779,-11.77186c29.82961,10.74383 48.97606,33.43344 42.76478,50.67869z" fill="#c8b16c" stroke="#dac175" stroke-width="2"/><path d="M396.30488,-12.99163c-0.50336,9.9164 -5.35057,21.07837 -8.88546,29.05502c-7.7478,17.48332 -3.01027,19.42321 -18.31919,18.64613c-5.31882,-0.26999 -11.47687,1.43643 -13.48894,0.51943c-2.42555,-1.10544 -17.80532,-12.51623 -21.52178,-18.921c-6.12255,-10.55125 -12.93044,-22.7886 -12.16921,-37.78528c1.60664,-31.65126 20.98152,-56.39232 43.27504,-55.26068c22.2935,1.13163 32.71618,32.09512 31.10954,63.74638z" fill="#dac175" stroke="#dac175" stroke-width="2"/><path d="M573.17628,93.63186c-8.69438,4.79544 -22.32102,7.78317 -30.96335,8.98c-18.94238,2.62323 -24.29652,1.8548 -31.6997,-11.56754c-2.5721,-4.66337 -5.55996,-8.32655 -5.84032,-10.5199c-0.33796,-2.64406 -1.06829,-6.53808 2.41835,-13.07081c5.74391,-10.76205 18.96304,-34.23672 32.11163,-41.48893c27.75077,-15.30614 57.3698,-12.64581 68.15066,6.9004c10.78086,19.5462 -6.42651,45.46065 -34.17729,60.76678z" fill="#dac175" stroke="#dac175" stroke-width="2"/><path d="M391.60144,-18.80279c1.00042,24.20282 -12.23353,44.40362 -29.55883,45.11976c-17.32531,0.71614 -32.18125,-18.32358 -33.18166,-42.52641c-1.00042,-24.20282 12.23354,-44.40364 29.55885,-45.11977c17.32531,-0.71614 32.18125,18.32359 33.18166,42.52641z" fill="#d98787" stroke="#dac175" stroke-width="2"/><path d="M574.89657,88.09362c-21.28722,13.51062 -46.70393,12.21003 -56.76984,-2.90493c-10.06589,-15.11497 -0.96921,-38.32059 20.31801,-51.83121c21.28721,-13.51063 46.70393,-12.21005 56.76982,2.90491c10.06588,15.11497 0.9692,38.3206 -20.31801,51.83121z" fill="#d98787" stroke="#dac175" stroke-width="2"/><path d="M431.59609,130.93285c-1.38699,3.85089 -4.70648,4.42529 -8.07459,6.24892c-4.01639,2.17463 -8.35435,5.10435 -13.04414,3.41521c-5.19337,-1.87051 -5.64761,-4.8391 -7.11024,-9.68102c-0.96579,-3.19715 -4.20568,-7.87181 -2.99629,-11.22961c3.04094,-8.44298 9.26826,-5.84827 17.89089,-2.74263c8.62263,3.10564 16.37532,5.54616 13.33438,13.98914z" fill="#d98787" stroke="#d98787" stroke-width="2"/><path d="M372.0608,133.43418c0.41968,-1.16522 1.70451,-1.7696 2.86973,-1.34992c1.16522,0.41968 1.7696,1.70451 1.34992,2.86973c-0.41968,1.16522 -1.70451,1.7696 -2.86973,1.34992c-1.16522,-0.41968 -1.7696,-1.70451 -1.34992,-2.86973z" fill="#000000" stroke="none" stroke-width="0.5"/><path d="M357.67825,141.60164c0.41968,-1.16522 1.70451,-1.7696 2.86973,-1.34992c1.16522,0.41968 1.76958,1.7045 1.3499,2.86972c-0.41968,1.16522 -1.70448,1.76959 -2.8697,1.34991c-1.16522,-0.41968 -1.76961,-1.70449 -1.34993,-2.86971z" fill="#000000" stroke="none" stroke-width="0.5"/><path d="M377.15651,145.75696c0.41968,-1.16522 1.70451,-1.7696 2.86973,-1.34992c1.16522,0.41968 1.7696,1.70451 1.34992,2.86973c-0.41968,1.16522 -1.7045,1.76958 -2.86972,1.3499c-1.16522,-0.41968 -1.76961,-1.70449 -1.34993,-2.86971z" fill="#000000" stroke="none" stroke-width="0.5"/><path d="M438.56294,152.61945c0.41968,-1.16522 1.70451,-1.7696 2.86973,-1.34992c1.16522,0.41968 1.7696,1.70451 1.34992,2.86973c-0.41968,1.16522 -1.7045,1.76958 -2.86972,1.3499c-1.16522,-0.41968 -1.76961,-1.70449 -1.34993,-2.86971z" fill="#000000" stroke="none" stroke-width="0.5"/><path d="M420.43276,163.25073c0.41968,-1.16522 1.70449,-1.76961 2.86971,-1.34993c1.16522,0.41968 1.7696,1.70451 1.34992,2.86973c-0.41968,1.16522 -1.70451,1.7696 -2.86973,1.34992c-1.16522,-0.41968 -1.76958,-1.7045 -1.3499,-2.86972z" fill="#000000" stroke="none" stroke-width="0.5"/><path d="M442.07088,171.9976c0.41968,-1.16522 1.70451,-1.7696 2.86973,-1.34992c1.16522,0.41968 1.7696,1.70451 1.34992,2.86973c-0.41968,1.16522 -1.7045,1.76958 -2.86972,1.3499c-1.16522,-0.41968 -1.76961,-1.70449 -1.34993,-2.86971z" fill="#000000" stroke="none" stroke-width="0.5"/><path d="M465.2264,117.76065c-1.00724,2.79653 -4.46862,4.11095 -7.73124,2.93584c-3.2626,-1.1751 -5.09096,-4.39476 -4.08373,-7.19128c1.00724,-2.79653 4.46862,-4.11094 7.73124,-2.93583c3.2626,1.1751 5.09097,4.39474 4.08373,7.19128z" fill="#ffffff" stroke="none" stroke-width="0"/><path d="M391.22246,90.13585c-1.00724,2.79653 -4.46862,4.11095 -7.73124,2.93584c-3.2626,-1.1751 -5.09096,-4.39473 -4.08372,-7.19126c1.00724,-2.79653 4.46862,-4.11095 7.73124,-2.93584c3.2626,1.1751 5.09096,4.39476 4.08373,7.19128z" fill="#ffffff" stroke="none" stroke-width="0"/><path d="M488.251,421.03517l-291.86283,2.25952l-5.77996,-483.97763l291.86283,-2.25952z" fill="url(#color-1)" stroke="none" stroke-width="0"/><path d="M199.4296,364.67611v-235h484v235z" fill="url(#color-2)" stroke="none" stroke-width="0"/></g></g></svg>