<svg version="1.1" xmlns="http://www.w3.org/2000/svg" xmlns:xlink="http://www.w3.org/1999/xlink" width="76.1064" height="203.51563" viewBox="0,0,76.1064,203.51563"><g transform="translate(-406.27359,-133.00175)"><g data-paper-data="{&quot;isPaintingLayer&quot;:true}" fill-rule="nonzero" stroke="none" stroke-width="0" stroke-linejoin="miter" stroke-miterlimit="10" stroke-dasharray="" stroke-dashoffset="0" style="mix-blend-mode: normal"><path d="M455.10887,322.2452l0.03267,0.09048c0,0 0.00678,0.01409 0.02052,0.04054c-0.17997,-0.09413 -0.35923,-0.18971 -0.53803,-0.28627c0.16131,0.0525 0.32292,0.10425 0.48484,0.15525z" fill="#cdcdcd" stroke-linecap="butt"/><path d="M463.97441,325.485c0.03053,-0.01016 0.06085,-0.02039 0.09097,-0.0307c0.00086,0.02844 0.00245,0.05651 0.00469,0.08417c-0.04315,-0.01416 -0.08634,-0.02824 -0.12957,-0.04226c0.01129,-0.00372 0.02259,-0.00745 0.03391,-0.01123z" fill="#cdcdcd" stroke-linecap="butt"/><path d="M455.10887,322.2452l0.03267,0.09048c0,0 0.00678,0.01409 0.02052,0.04054c-0.17997,-0.09413 -0.35923,-0.18971 -0.53803,-0.28627c0.16131,0.0525 0.32292,0.10425 0.48484,0.15525z" fill="#c3c3c3" stroke-linecap="butt"/><path d="M463.97441,325.485c0.03053,-0.01016 0.06085,-0.02039 0.09097,-0.0307c0.00086,0.02844 0.00245,0.05651 0.00469,0.08417c-0.04315,-0.01416 -0.08634,-0.02824 -0.12957,-0.04226c0.01129,-0.00372 0.02259,-0.00745 0.03391,-0.01123z" fill="#c3c3c3" stroke-linecap="butt"/><path d="M406.27359,307.44372l13.55319,-168.81481l62.55321,-5.62716l-11.46809,203.51563z" data-paper-data="{&quot;index&quot;:null}" fill="#000000" stroke-linecap="round"/></g></g></svg>