<svg version="1.1" xmlns="http://www.w3.org/2000/svg" xmlns:xlink="http://www.w3.org/1999/xlink" width="155.94742" height="206.16803" viewBox="0,0,155.94742,206.16803"><g transform="translate(-362.47071,-130.34936)"><g data-paper-data="{&quot;isPaintingLayer&quot;:true}" fill-rule="nonzero" stroke-linejoin="miter" stroke-miterlimit="10" stroke-dasharray="" stroke-dashoffset="0" style="mix-blend-mode: normal"><path d="M455.10887,322.24521l0.03267,0.09048c0,0 0.00678,0.01409 0.02052,0.04054c-0.17997,-0.09413 -0.35923,-0.18971 -0.53803,-0.28627c0.16131,0.0525 0.32292,0.10425 0.48484,0.15525z" fill="#cdcdcd" stroke="none" stroke-width="0" stroke-linecap="butt"/><path d="M463.97441,325.48501c0.03053,-0.01016 0.06085,-0.02039 0.09097,-0.0307c0.00086,0.02844 0.00245,0.05651 0.00469,0.08417c-0.04315,-0.01416 -0.08634,-0.02824 -0.12957,-0.04226c0.01129,-0.00372 0.02259,-0.00745 0.03391,-0.01123z" fill="#cdcdcd" stroke="none" stroke-width="0" stroke-linecap="butt"/><path d="M455.10887,322.24521l0.03267,0.09048c0,0 0.00678,0.01409 0.02052,0.04054c-0.17997,-0.09413 -0.35923,-0.18971 -0.53803,-0.28627c0.16131,0.0525 0.32292,0.10425 0.48484,0.15525z" fill="#c3c3c3" stroke="none" stroke-width="0" stroke-linecap="butt"/><path d="M463.97441,325.48501c0.03053,-0.01016 0.06085,-0.02039 0.09097,-0.0307c0.00086,0.02844 0.00245,0.05651 0.00469,0.08417c-0.04315,-0.01416 -0.08634,-0.02824 -0.12957,-0.04226c0.01129,-0.00372 0.02259,-0.00745 0.03391,-0.01123z" fill="#c3c3c3" stroke="none" stroke-width="0" stroke-linecap="butt"/><path d="M406.27359,307.44372l13.55319,-168.81481l62.55321,-5.62716l-11.46809,203.51563z" data-paper-data="{&quot;index&quot;:null}" fill="#000000" stroke="none" stroke-width="0" stroke-linecap="round"/><path d="M383.38358,146.91584l2.35932,-16.30632l132.38833,6.09742l-2.35932,16.30632z" data-paper-data="{&quot;index&quot;:null}" fill="#737373" stroke="#cccccc" stroke-width="0.5" stroke-linecap="butt"/><path d="M381.18982,158.46374l2.35932,-16.30632l132.38833,6.09742l-2.35932,16.30632z" data-paper-data="{&quot;index&quot;:null}" fill="#737373" stroke="#cccccc" stroke-width="0.5" stroke-linecap="butt"/><path d="M379.77863,173.05176l2.35932,-16.30632l132.38833,6.09742l-2.35932,16.30632z" data-paper-data="{&quot;index&quot;:null}" fill="#737373" stroke="#cccccc" stroke-width="0.5" stroke-linecap="butt"/><path d="M377.58487,184.59966l2.35932,-16.30632l132.38833,6.09742l-2.35932,16.30632z" data-paper-data="{&quot;index&quot;:null}" fill="#737373" stroke="#cccccc" stroke-width="0.5" stroke-linecap="butt"/><path d="M374.37119,197.38521l2.35932,-16.30632l132.38833,6.09742l-2.35932,16.30632z" data-paper-data="{&quot;index&quot;:null}" fill="#737373" stroke="#cccccc" stroke-width="0.5" stroke-linecap="butt"/><path d="M372.17743,208.93311l2.35932,-16.30632l132.38833,6.09742l-2.35932,16.30632z" data-paper-data="{&quot;index&quot;:null}" fill="#737373" stroke="#cccccc" stroke-width="0.5" stroke-linecap="butt"/><path d="M368.96376,222.61989l2.35932,-16.30632l132.38833,6.09742l-2.35932,16.30632z" data-paper-data="{&quot;index&quot;:null}" fill="#737373" stroke="#cccccc" stroke-width="0.5" stroke-linecap="butt"/><path d="M366.77,234.16779l2.35932,-16.30632l132.38833,6.09742l-2.35932,16.30632z" data-paper-data="{&quot;index&quot;:null}" fill="#737373" stroke="#cccccc" stroke-width="0.5" stroke-linecap="butt"/><path d="M364.95138,244.74341l2.35932,-16.30632l132.38833,6.09742l-2.35932,16.30632z" data-paper-data="{&quot;index&quot;:null}" fill="#737373" stroke="#cccccc" stroke-width="0.5" stroke-linecap="butt"/><path d="M362.75762,256.29131l2.35932,-16.30632l132.38833,6.09742l-2.35932,16.30632z" data-paper-data="{&quot;index&quot;:null}" fill="#737373" stroke="#cccccc" stroke-width="0.5" stroke-linecap="butt"/></g></g></svg>