<svg version="1.1" xmlns="http://www.w3.org/2000/svg" xmlns:xlink="http://www.w3.org/1999/xlink" width="151.0787" height="205.17058" viewBox="0,0,151.0787,205.17058"><g transform="translate(26.84359,-122.30168)"><g data-paper-data="{&quot;isPaintingLayer&quot;:true}" fill-rule="nonzero" stroke-linejoin="miter" stroke-miterlimit="10" stroke-dasharray="" stroke-dashoffset="0" style="mix-blend-mode: normal"><path d="M59.78404,131.61505l4.55434,0.40509l0.26091,3.21321" fill="none" stroke="#cdcdcd" stroke-width="2.5" stroke-linecap="round"/><path d="M12.9107,327.47225l-13.26277,-200.80208l63.44682,5.7272l13.74682,171.81596z" data-paper-data="{&quot;index&quot;:null}" fill="#000000" stroke="none" stroke-width="0" stroke-linecap="round"/><path d="M-24.19737,144.96558l-2.35932,-16.30632l132.38833,-6.09742l2.35932,16.30632z" fill="#737373" stroke="#cccccc" stroke-width="0.5" stroke-linecap="butt"/><path d="M-22.00361,156.51349l-2.35932,-16.30632l132.38833,-6.09742l2.35932,16.30632z" fill="#737373" stroke="#cccccc" stroke-width="0.5" stroke-linecap="butt"/><path d="M-19.19737,171.01241l-2.35932,-16.30632l132.38833,-6.09742l2.35932,16.30632z" fill="#737373" stroke="#cccccc" stroke-width="0.5" stroke-linecap="butt"/><path d="M-17.00361,182.56031l-2.35932,-16.30632l132.38833,-6.09742l2.35932,16.30632z" fill="#737373" stroke="#cccccc" stroke-width="0.5" stroke-linecap="butt"/><path d="M-14.5203,194.39772l-2.35932,-16.30632l132.38833,-6.09742l2.35932,16.30632z" fill="#737373" stroke="#cccccc" stroke-width="0.5" stroke-linecap="butt"/><path d="M-12.32654,205.94561l-2.35932,-16.30632l132.38833,-6.09742l2.35932,16.30632z" fill="#737373" stroke="#cccccc" stroke-width="0.5" stroke-linecap="butt"/><path d="M-10.63388,218.39554l-2.35932,-16.30632l132.38833,-6.09742l2.35932,16.30632z" fill="#737373" stroke="#cccccc" stroke-width="0.5" stroke-linecap="butt"/><path d="M-8.44012,229.94344l-2.35932,-16.30632l132.38833,-6.09742l2.35932,16.30632z" fill="#737373" stroke="#cccccc" stroke-width="0.5" stroke-linecap="butt"/></g></g></svg>