<svg version="1.1" xmlns="http://www.w3.org/2000/svg" xmlns:xlink="http://www.w3.org/1999/xlink" width="681.27228" height="383.61016" viewBox="0,0,681.27228,383.61016"><g transform="translate(110.13614,9.71861)"><g data-paper-data="{&quot;isPaintingLayer&quot;:true}" fill-rule="nonzero" stroke-linejoin="miter" stroke-miterlimit="10" stroke-dasharray="" stroke-dashoffset="0" style="mix-blend-mode: normal"><path d="M-64.42216,360.19654l1.25355,-366.93106l600.11981,1.34088l-1.25355,366.93106zM3.99687,188.17709c0,9.84051 -0.99716,20.06786 0.02315,29.86298c0.75666,7.2641 1.49451,14.55546 1.73031,21.85886c1.25535,2.61096 1.09711,4.54572 1.57653,7.4188l-0.0683,1.00955c0,0 0,0.93869 0.45977,2.05105c-0.24974,4.20457 -0.4752,8.39239 -0.4267,12.52597c0.76814,3.19523 0.15694,6.27421 0.54362,9.4974c0.27362,2.28083 1.38862,4.50888 1.63085,6.78385c0.27038,2.53934 -0.31876,5.14491 0,7.68837c0.04586,0.36599 0.12799,0.72594 0.23345,1.08203c-0.44773,0.51661 -0.44772,1.14741 -0.44772,1.14741l0.02958,0.59891c1.20707,5.9227 2.50729,12.02141 2.50729,18.09438c0.0083,2.93854 0.80909,5.73644 1.52739,8.53844c-0.32729,0.39666 -0.41057,0.81231 -0.41057,0.81231c-0.47774,2.43132 -0.80465,5.37333 -0.392,7.83502c0.18603,1.10979 -0.2172,2.65446 0.90304,3.27658c1.56461,0.86891 6.19991,-0.63256 8.40408,-2.45134c0.45651,0.00478 0.80321,-0.09136 0.80321,-0.09136c0.64415,-0.17863 4.56753,-1.24613 4.90504,-1.43831c0.75567,-0.43029 1.39792,-1.10668 2.06222,-1.78141c0.69604,0.05235 1.29062,-0.19498 1.29062,-0.19498c2.0297,-0.8443 4.28551,-1.59421 6.2507,-2.56659c3.54436,-0.2703 5.10343,-1.72104 8.31246,-3.19094c1.33858,-0.61314 3.00241,-0.60505 4.34894,-1.20602c2.05738,-0.91824 3.94057,-1.79343 6.0943,-2.68459l1.00285,-0.54346c2.05027,-0.51221 4.07961,-1.12284 6.08246,-1.96281c1.15727,-0.76657 2.22671,-1.37689 3.34955,-1.85566c0.45255,-0.14515 0.9041,-0.29316 1.3545,-0.44451c0.38018,-0.12776 0.76625,-0.25405 1.1548,-0.38189c0.63116,-0.15184 1.30022,-0.27545 2.02457,-0.37386l2.39685,-1.24171c0,0 0.18553,-0.11576 0.38996,-0.32207c1.11154,-0.62285 2.10156,-1.39188 2.85951,-2.40529c0.86915,-1.1621 1.16373,-7.1476 0.63546,-8.81693c-0.31556,-0.99715 -1.36426,-1.74106 -1.80278,-2.7055c-0.5237,-1.1518 -0.48488,-2.42471 -0.69998,-3.64746c-0.17275,-3.77236 -0.99454,-7.53782 -1.93291,-11.29742c0.14367,-1.69003 0.33329,-3.35981 0.33329,-4.8102c0,-5.64989 -0.47346,-11.07492 -1.0538,-16.658c0.11995,-4.14603 0.51936,-8.21322 0.47711,-12.39124c-0.17211,-0.71595 -0.33078,-1.431 -0.477,-2.14543c0.32887,-0.47984 0.32888,-0.99336 0.32888,-0.99336c0,-4.54839 -1.43967,-8.81842 -1.45706,-13.41542l-0.38459,-1.95722c0,0 -0.02817,-0.14062 -0.11615,-0.33633c-0.02591,-1.36406 -0.03548,-2.73425 -0.03548,-4.11255c0,-5.55931 0.20858,-10.67513 -1.53488,-15.68412c-0.14853,-2.61174 -0.58115,-5.17964 -1.64609,-7.6188c-0.02976,-10.94496 -0.3494,-21.86725 -1.79201,-32.73973c-1.46865,-6.17602 -0.48295,-11.9079 -0.46317,-18.12748c0.00494,-1.55282 0.07468,-4.78286 -0.41996,-6.3947c0.26425,-0.61626 0.41996,-1.34246 0.41996,-2.19819c0,-5.65321 -6.79521,-5.65321 -6.79521,-5.65321h-1.08723c-2.61867,0 -5.42383,0.2245 -8.02829,0.02752c-4.75218,-0.35944 -9.3867,-1.84763 -14.13405,-2.26128c-6.15628,-0.53642 -12.31795,-0.11595 -18.48298,-0.45226c-2.67685,-0.14602 -5.60181,-0.93954 -8.25033,-1.30736c0,0 -4.54128,-0.62968 -6.77082,2.25736c-0.31303,0.25777 -0.46491,0.57362 -0.53517,0.85662c-0.22221,0.44657 -0.39808,0.95478 -0.5139,1.53292c-0.39645,1.97893 0.19195,3.37262 1.11612,4.34722c0.16446,2.4443 0.20307,4.8883 0.42774,7.36034c0.12689,1.39613 0.34596,2.78709 0.59208,4.17603c0.087,1.33646 0.27056,2.65923 0.51145,3.97283c-0.38417,0.49996 -0.38417,1.06954 -0.38417,1.06954v1.20602c0.01411,3.72915 0.72483,7.38934 0.72483,11.15567c0,1.29026 -0.64158,4.60261 0.02808,5.71685c0.05283,0.08791 0.10866,0.17422 0.16715,0.2591l-0.08364,0.02319l0.70896,1.76946c0.07278,0.19687 0.18485,0.37942 0.32861,0.54131c-0.16002,4.82501 -0.42434,9.63778 -0.42434,14.50716zM427.46344,138.04164c-0.69501,-0.18434 -1.50082,-0.29119 -2.43506,-0.29119c-6.79521,0 -6.79521,5.65321 -6.79521,5.65321c0,7.0374 -0.39357,13.81773 -1.06408,20.7898c-0.25948,2.69813 0.259,5.44693 0,8.14063c-0.25268,2.62801 -1.0596,4.71346 -1.56626,7.2491c-0.68226,3.41449 -0.08775,7.39791 -0.08775,10.8552c0,2.47431 0.17059,5.04421 0.25409,7.60681c-0.58974,0.32355 -0.9789,0.87961 -0.9789,1.51129c0,0.15616 0.02379,0.30771 0.06851,0.45226c-0.04472,0.14455 -0.06851,0.29609 -0.06851,0.45226c0,0.21514 0.04514,0.4215 0.12798,0.6129c-0.07405,0.17426 -0.09838,0.29571 -0.09838,0.29571c-0.78942,4.01747 0.24057,8.55997 -1.36764,12.38854l-0.72483,1.80903c0,0 -0.65848,1.64345 1.24643,2.24994c-1.25115,10.56063 -2.23097,21.16037 -2.23097,31.76213c-2.39809,9.32876 -3.29478,19.0697 -3.29478,28.59698c0,8.17493 0.87422,16.74778 -1.05416,24.76933c0.3548,1.96629 -0.42533,4.34407 1.06441,5.89885c2.61031,2.72427 7.31899,3.48052 11.29282,4.57957c3.31629,0.9172 6.51445,2.47922 9.92159,3.19976c1.31136,0.27732 2.63223,0.52291 3.95355,0.76681c-0.05583,1.49986 1.82638,1.76084 1.82638,1.76084c2.44006,0.25052 4.09588,1.64812 6.56231,2.34565c1.73218,0.48988 3.60624,0.6045 5.30644,1.16659c4.33775,1.43405 8.28274,3.90045 12.66299,5.41981c2.15438,0.74728 4.04615,1.59479 6.07205,2.5025c1.21821,0.54582 2.49664,1.94493 3.75656,1.46915c3.9558,-1.49382 1.57313,-7.23998 1.14558,-9.69078c0.00141,-0.43456 -0.008,-0.87797 -0.02386,-1.32798c1.36579,-3.70076 1.77978,-7.15933 0.98879,-10.6143c0.07391,-0.17402 0.0982,-0.29527 0.0982,-0.29527c1.02638,-5.12332 0.46303,-10.17183 0.10469,-15.25187c0.27901,-0.24649 0.43931,-0.53631 0.52673,-0.74553c0.84779,-0.5203 0.8478,-1.48576 0.8478,-1.48576c0,-0.60301 0,-1.50753 0,-2.11054c0,0 0,-0.3258 -0.16619,-0.70087c0.07127,-0.77766 0.1182,-1.55768 0.14348,-2.35326c0.01496,-0.08568 0.02271,-0.1733 0.02271,-0.26242c0,-0.06142 -0.00367,-0.12211 -0.01086,-0.18195c0.00731,-0.33783 0.01086,-0.67886 0.01086,-1.02407v-1.80903c0,-0.22864 -0.05099,-0.44737 -0.14402,-0.64876c-0.04686,-0.11474 -0.10896,-0.23545 -0.19128,-0.35391c0.09019,-0.19839 0.17449,-0.39782 0.24756,-0.5992c0.80471,-2.21746 0.7879,-4.75274 1.12109,-7.0431c2.01538,-5.15363 0.77869,-11.8886 0.77869,-17.28443v-0.42386c1.08723,-1.52323 1.08723,-3.18936 1.08723,-3.18936v-0.45226c0,-6.52848 1.08723,-12.9026 1.08723,-19.44705c0,-1.17071 0.04988,-3.1733 -0.10366,-4.88025c0.2207,-0.58165 0.40579,-1.16199 0.52467,-1.73905c0.15192,-0.7375 0.12261,-5.35337 0.12261,-6.49615c0,-4.23942 0,-8.47882 0,-12.71824c0.20797,-1.49236 0.38277,-2.97967 0.52046,-4.4535c0.57879,-6.1955 -0.6393,-12.43212 -0.52046,-18.55655c0,-4.9959 1.6551,-9.49935 2.15131,-14.4582c0.62864,-6.28215 -0.17718,-12.64242 0.5337,-18.90401c0.28171,-2.48142 -0.12323,-4.91943 0.15546,-7.36367c0.4893,-0.6549 0.83704,-1.48066 0.93608,-2.52187c0.66708,-0.80209 1.116,-1.88167 1.116,-3.33473c0,-5.65321 -6.79521,-5.65321 -6.79521,-5.65321h-2.71809c-2.94461,0 -6.57453,-0.36905 -9.43928,0.102c-1.91461,0.31483 -3.51442,1.52593 -5.43617,1.80903c-4.18665,0.61675 -8.72714,0.41232 -12.97499,0.83002c-2.15913,0.21231 -4.0918,1.02432 -6.10044,1.49139c-4.0052,-0.04112 -8.00086,-0.26044 -11.99598,0.12907z" fill="#cdcdcd" stroke="none" stroke-width="0" stroke-linecap="butt"/><path d="M455.10887,322.2452l0.03267,0.09048c0,0 0.00678,0.01409 0.02052,0.04054c-0.17997,-0.09413 -0.35923,-0.18971 -0.53803,-0.28627c0.16131,0.0525 0.32292,0.10425 0.48484,0.15525z" fill="#cdcdcd" stroke="none" stroke-width="0" stroke-linecap="butt"/><path d="M463.97441,325.485c0.03053,-0.01016 0.06085,-0.02039 0.09097,-0.0307c0.00086,0.02844 0.00245,0.05651 0.00469,0.08417c-0.04315,-0.01416 -0.08634,-0.02824 -0.12957,-0.04226c0.01129,-0.00372 0.02259,-0.00745 0.03391,-0.01123z" fill="#cdcdcd" stroke="none" stroke-width="0" stroke-linecap="butt"/><path d="M-45.33413,359.21608l-16.13623,-361.80476l147.51475,-4.30286l16.13624,361.80477zM3.99687,188.17709c0,9.84051 -0.99716,20.06786 0.02315,29.86298c0.75666,7.2641 1.49451,14.55546 1.73031,21.85886c1.25535,2.61096 1.09711,4.54572 1.57653,7.4188l-0.0683,1.00955c0,0 0,0.93869 0.45977,2.05105c-0.24974,4.20457 -0.4752,8.39239 -0.4267,12.52597c0.76814,3.19523 0.15694,6.27421 0.54362,9.4974c0.27362,2.28083 1.38862,4.50888 1.63085,6.78385c0.27038,2.53934 -0.31876,5.14491 0,7.68837c0.04586,0.36599 0.12799,0.72594 0.23345,1.08203c-0.44773,0.51661 -0.44772,1.14741 -0.44772,1.14741l0.02958,0.59891c1.20707,5.9227 2.50729,12.02141 2.50729,18.09438c0.0083,2.93854 0.80909,5.73644 1.52739,8.53844c-0.32729,0.39666 -0.41057,0.81231 -0.41057,0.81231c-0.47774,2.43132 -0.80465,5.37333 -0.392,7.83502c0.18603,1.10979 -0.2172,2.65446 0.90304,3.27658c1.56461,0.86891 6.19991,-0.63256 8.40408,-2.45134c0.45651,0.00478 0.80321,-0.09136 0.80321,-0.09136c0.64415,-0.17863 4.56753,-1.24613 4.90504,-1.43831c0.75567,-0.43029 1.39792,-1.10668 2.06222,-1.78141c0.69604,0.05235 1.29062,-0.19498 1.29062,-0.19498c2.0297,-0.8443 4.28551,-1.59421 6.2507,-2.56659c3.54436,-0.2703 5.10343,-1.72104 8.31246,-3.19094c1.33858,-0.61314 3.00241,-0.60505 4.34894,-1.20602c2.05738,-0.91824 3.94057,-1.79343 6.0943,-2.68459l1.00285,-0.54346c2.05027,-0.51221 4.07961,-1.12284 6.08246,-1.96281c1.15727,-0.76657 2.22671,-1.37689 3.34955,-1.85566c0.45255,-0.14515 0.9041,-0.29316 1.3545,-0.44451c0.38018,-0.12776 0.76625,-0.25405 1.1548,-0.38189c0.63116,-0.15184 1.30022,-0.27545 2.02457,-0.37386l2.39685,-1.24171c0,0 0.18553,-0.11576 0.38996,-0.32207c1.11154,-0.62285 2.10156,-1.39188 2.85951,-2.40529c0.86915,-1.1621 1.16373,-7.1476 0.63546,-8.81693c-0.31556,-0.99715 -1.36426,-1.74106 -1.80278,-2.7055c-0.5237,-1.1518 -0.48488,-2.42471 -0.69998,-3.64746c-0.17275,-3.77236 -0.99454,-7.53782 -1.93291,-11.29742c0.14367,-1.69003 0.33329,-3.35981 0.33329,-4.8102c0,-5.64989 -0.47346,-11.07492 -1.0538,-16.658c0.11995,-4.14603 0.51936,-8.21322 0.47711,-12.39124c-0.17211,-0.71595 -0.33078,-1.431 -0.477,-2.14543c0.32887,-0.47984 0.32888,-0.99336 0.32888,-0.99336c0,-4.54839 -1.43967,-8.81842 -1.45706,-13.41542l-0.38459,-1.95722c0,0 -0.02817,-0.14062 -0.11615,-0.33633c-0.02591,-1.36406 -0.03548,-2.73425 -0.03548,-4.11255c0,-5.55931 0.20858,-10.67513 -1.53488,-15.68412c-0.14853,-2.61174 -0.58115,-5.17964 -1.64609,-7.6188c-0.02976,-10.94496 -0.3494,-21.86725 -1.79201,-32.73973c-1.46865,-6.17602 -0.48295,-11.9079 -0.46317,-18.12748c0.00494,-1.55282 0.07468,-4.78286 -0.41996,-6.3947c0.26425,-0.61626 0.41996,-1.34246 0.41996,-2.19819c0,-5.65321 -6.79521,-5.65321 -6.79521,-5.65321h-1.08723c-2.61867,0 -5.42383,0.2245 -8.02829,0.02752c-4.75218,-0.35944 -9.3867,-1.84763 -14.13405,-2.26128c-6.15628,-0.53642 -12.31795,-0.11595 -18.48298,-0.45226c-2.67685,-0.14602 -5.60181,-0.93954 -8.25033,-1.30736c0,0 -4.54128,-0.62968 -6.77082,2.25736c-0.31303,0.25777 -0.46491,0.57362 -0.53517,0.85662c-0.22221,0.44657 -0.39808,0.95478 -0.5139,1.53292c-0.39645,1.97893 0.19195,3.37262 1.11612,4.34722c0.16446,2.4443 0.20307,4.8883 0.42774,7.36034c0.12689,1.39613 0.34596,2.78709 0.59208,4.17603c0.087,1.33646 0.27056,2.65923 0.51145,3.97283c-0.38417,0.49996 -0.38417,1.06954 -0.38417,1.06954v1.20602c0.01411,3.72915 0.72483,7.38934 0.72483,11.15567c0,1.29026 -0.64158,4.60261 0.02808,5.71685c0.05283,0.08791 0.10866,0.17422 0.16715,0.2591l-0.08364,0.02319l0.70896,1.76946c0.07278,0.19687 0.18485,0.37942 0.32861,0.54131c-0.16002,4.82501 -0.42434,9.63778 -0.42434,14.50716z" fill="#c3c3c3" stroke="none" stroke-width="0" stroke-linecap="butt"/><path d="M390.14524,360.19113l-3.16735,-362.03096l147.60698,-0.8446l3.16735,362.03096zM427.46344,138.04164c-0.69501,-0.18434 -1.50082,-0.29119 -2.43506,-0.29119c-6.79521,0 -6.79521,5.65321 -6.79521,5.65321c0,7.0374 -0.39357,13.81773 -1.06408,20.7898c-0.25948,2.69813 0.259,5.44693 0,8.14063c-0.25268,2.62801 -1.0596,4.71346 -1.56626,7.2491c-0.68226,3.41449 -0.08775,7.39791 -0.08775,10.8552c0,2.47431 0.17059,5.04421 0.25409,7.60681c-0.58974,0.32355 -0.9789,0.87961 -0.9789,1.51129c0,0.15616 0.02379,0.30771 0.06851,0.45226c-0.04472,0.14455 -0.06851,0.29609 -0.06851,0.45226c0,0.21514 0.04514,0.4215 0.12798,0.6129c-0.07405,0.17426 -0.09838,0.29571 -0.09838,0.29571c-0.78942,4.01747 0.24057,8.55997 -1.36764,12.38854l-0.72483,1.80903c0,0 -0.65848,1.64345 1.24643,2.24994c-1.25115,10.56063 -2.23097,21.16037 -2.23097,31.76213c-2.39809,9.32876 -3.29478,19.0697 -3.29478,28.59698c0,8.17493 0.87422,16.74778 -1.05416,24.76933c0.3548,1.96629 -0.42533,4.34407 1.06441,5.89885c2.61031,2.72427 7.31899,3.48052 11.29282,4.57957c3.31629,0.9172 6.51445,2.47922 9.92159,3.19976c1.31136,0.27732 2.63223,0.52291 3.95355,0.76681c-0.05583,1.49986 1.82638,1.76084 1.82638,1.76084c2.44006,0.25052 4.09588,1.64812 6.56231,2.34565c1.73218,0.48988 3.60624,0.6045 5.30644,1.16659c4.33775,1.43405 8.28274,3.90045 12.66299,5.41981c2.15438,0.74728 4.04615,1.59479 6.07205,2.5025c1.21821,0.54582 2.49664,1.94493 3.75656,1.46915c3.9558,-1.49382 1.57313,-7.23998 1.14558,-9.69078c0.00141,-0.43456 -0.008,-0.87797 -0.02386,-1.32798c1.36579,-3.70076 1.77978,-7.15933 0.98879,-10.6143c0.07391,-0.17402 0.0982,-0.29527 0.0982,-0.29527c1.02638,-5.12332 0.46303,-10.17183 0.10469,-15.25187c0.27901,-0.24649 0.43931,-0.53631 0.52673,-0.74553c0.84779,-0.5203 0.8478,-1.48576 0.8478,-1.48576c0,-0.60301 0,-1.50753 0,-2.11054c0,0 0,-0.3258 -0.16619,-0.70087c0.07127,-0.77766 0.1182,-1.55768 0.14348,-2.35326c0.01496,-0.08568 0.02271,-0.1733 0.02271,-0.26242c0,-0.06142 -0.00367,-0.12211 -0.01086,-0.18195c0.00731,-0.33783 0.01086,-0.67886 0.01086,-1.02407v-1.80903c0,-0.22864 -0.05099,-0.44737 -0.14402,-0.64876c-0.04686,-0.11474 -0.10896,-0.23545 -0.19128,-0.35391c0.09019,-0.19839 0.17449,-0.39782 0.24756,-0.5992c0.80471,-2.21746 0.7879,-4.75274 1.12109,-7.0431c2.01538,-5.15363 0.77869,-11.8886 0.77869,-17.28443v-0.42386c1.08723,-1.52323 1.08723,-3.18936 1.08723,-3.18936v-0.45226c0,-6.52848 1.08723,-12.9026 1.08723,-19.44705c0,-1.17071 0.04988,-3.1733 -0.10366,-4.88025c0.2207,-0.58165 0.40579,-1.16199 0.52467,-1.73905c0.15192,-0.7375 0.12261,-5.35337 0.12261,-6.49615c0,-4.23942 0,-8.47882 0,-12.71824c0.20797,-1.49236 0.38277,-2.97967 0.52046,-4.4535c0.57879,-6.1955 -0.6393,-12.43212 -0.52046,-18.55655c0,-4.9959 1.6551,-9.49935 2.15131,-14.4582c0.62864,-6.28215 -0.17718,-12.64242 0.5337,-18.90401c0.28171,-2.48142 -0.12323,-4.91943 0.15546,-7.36367c0.4893,-0.6549 0.83704,-1.48066 0.93608,-2.52187c0.66708,-0.80209 1.116,-1.88167 1.116,-3.33473c0,-5.65321 -6.79521,-5.65321 -6.79521,-5.65321h-2.71809c-2.94461,0 -6.57453,-0.36905 -9.43928,0.102c-1.91461,0.31483 -3.51442,1.52593 -5.43617,1.80903c-4.18665,0.61675 -8.72714,0.41232 -12.97499,0.83002c-2.15913,0.21231 -4.0918,1.02432 -6.10044,1.49139c-4.0052,-0.04112 -8.00086,-0.26044 -11.99598,0.12907z" fill="#c3c3c3" stroke="none" stroke-width="0" stroke-linecap="butt"/><path d="M455.10887,322.2452l0.03267,0.09048c0,0 0.00678,0.01409 0.02052,0.04054c-0.17997,-0.09413 -0.35923,-0.18971 -0.53803,-0.28627c0.16131,0.0525 0.32292,0.10425 0.48484,0.15525z" fill="#c3c3c3" stroke="none" stroke-width="0" stroke-linecap="butt"/><path d="M463.97441,325.485c0.03053,-0.01016 0.06085,-0.02039 0.09097,-0.0307c0.00086,0.02844 0.00245,0.05651 0.00469,0.08417c-0.04315,-0.01416 -0.08634,-0.02824 -0.12957,-0.04226c0.01129,-0.00372 0.02259,-0.00745 0.03391,-0.01123z" fill="#c3c3c3" stroke="none" stroke-width="0" stroke-linecap="butt"/><path d="M91.34849,86.16355l-150.89338,-95.88216l580.76111,1.36714l-134.61073,96.96362z" fill="#a3a3a3" stroke="none" stroke-width="0" stroke-linecap="butt"/><g stroke="none" stroke-width="0" stroke-linecap="butt"><g><path d="M314.40229,237.4731v-37.08507h36.96597v37.08507z" fill="#1f0000"/><path d="M277.43632,237.4731v-37.08507h36.96597v37.08507z" fill="#f20000"/></g><path d="M351.36826,237.4731v-37.08507h36.96597v37.08507z" fill="#f20000"/><g><path d="M241.55758,237.4731v-37.08507h36.96597v37.08507z" fill="#1f0000"/><path d="M204.59161,237.4731v-37.08507h36.96597v37.08507z" fill="#f20000"/></g><g><path d="M168.71288,237.4731v-37.08507h36.96597v37.08507z" fill="#1f0000"/><path d="M131.74691,237.4731v-37.08507h36.96597v37.08507z" fill="#f20000"/></g><path d="M94.78094,237.4731v-37.08507h36.96597v37.08507z" fill="#1f0000"/></g><g stroke="none" stroke-width="0" stroke-linecap="butt"><path d="M96.56122,200.61192l-1.46607,37.06501l-22.92407,-0.62757c-0.36246,-3.60186 -1.30267,-7.09856 -1.31671,-10.80817l-0.38459,-1.95722c0,0 -0.02817,-0.14062 -0.11615,-0.33633c-0.02591,-1.36406 -0.03548,-2.73425 -0.03548,-4.11255c0,-5.55931 0.20858,-10.67513 -1.53488,-15.68412c-0.08286,-1.45695 -0.25412,-2.90029 -0.57426,-4.31522z" fill="#d30000"/><path d="" fill="#000000"/><path d="M-15.74276,234.64261l1.46607,-37.06502l18.0543,0.49426c-0.22037,6.68616 -0.43929,13.42366 0.24242,19.96822c0.5952,5.71395 1.17875,11.44477 1.51546,17.18505z" fill="#d30000"/><path d="" fill="#d30000"/><path d="M-52.68874,233.63116l1.46607,-37.06501l36.94597,1.01144l-1.46607,37.06502z" fill="#000000"/></g><g stroke="none" stroke-width="0" stroke-linecap="butt"><g data-paper-data="{&quot;index&quot;:null}"><path d="M495.60111,194.92406l2.83812,37.00983l-20.94405,1.11163c-0.00015,-0.99781 -0.01871,-2.13586 -0.1114,-3.16621c0.2207,-0.58165 0.40579,-1.16199 0.52467,-1.73905c0.15192,-0.7375 0.12261,-5.35337 0.12261,-6.49615c0,-4.23942 0,-8.47882 0,-12.71824c0.20797,-1.49236 0.38277,-2.97967 0.52046,-4.4535c0.26874,-2.87663 0.15009,-5.76212 -0.04224,-8.64114z" fill="#000000"/><path d="" fill="#000000"/><path d="" fill="#000000"/><path d="" fill="#d30000"/></g><g data-paper-data="{&quot;index&quot;:null}"><path d="M534.24517,230.03348l-2.83812,-37.00982l36.89097,-1.95802l2.83812,37.00983z" fill="#000000"/><path d="M497.35419,231.99149l-2.83812,-37.00983l36.89097,-1.95802l2.83812,37.00982z" fill="#d30000"/></g><path d="M388.85135,237.75037l-2.83812,-37.00983l28.81663,-1.52947c-0.02598,0.11181 -0.03959,0.22728 -0.03959,0.34541c0,0.15616 0.02379,0.30771 0.06851,0.45226c-0.04472,0.14455 -0.06851,0.29609 -0.06851,0.45226c0,0.21514 0.04514,0.4215 0.12798,0.6129c-0.07405,0.17426 -0.09838,0.29571 -0.09838,0.29571c-0.78942,4.01747 0.24057,8.55997 -1.36764,12.38854l-0.72483,1.80903c0,0 -0.65848,1.64345 1.24643,2.24994c-0.73695,6.22047 -1.37978,12.4545 -1.78367,18.69453z" fill="#000000"/></g><path d="M59.78404,131.61504l4.55434,0.40509l0.26091,3.21321" fill="none" stroke="#cdcdcd" stroke-width="2.5" stroke-linecap="round"/><path d="M-110.13614,372.8693l209.88429,-80.85747l290.34452,1.53572l176.93735,80.344z" fill="#a3a3a3" stroke="none" stroke-width="0" stroke-linecap="butt"/><path d="M296.54511,215.41389l-22.83593,-93.46479l83.86732,-12.00238l22.83593,93.4648z" fill="#e6e6e6" stroke="#cdcdcd" stroke-width="2.5" stroke-linecap="butt"/><path d="M318.35743,195.25724l-3.68305,-7.48547l33.38426,-8.77634l-1.08453,10.42834c0,0 -6.73909,6.07484 -11.89806,7.02028c-5.04072,0.92377 -16.71861,-1.18682 -16.71861,-1.18682z" fill="#000000" stroke="none" stroke-width="0" stroke-linecap="butt"/><path d="M325.92866,193.77889c0.35929,1.34909 -0.49788,2.68549 -1.91454,2.98492c-1.41667,0.29943 -2.85636,-0.5515 -3.21565,-1.90059c-0.35929,-1.34909 0.49789,-2.68549 1.91455,-2.98492c1.41667,-0.29943 2.85635,0.55149 3.21564,1.90059z" fill="#9e9e9e" stroke="none" stroke-width="0" stroke-linecap="butt"/><path d="M331.61784,194.29657c0.35929,1.34909 -0.49788,2.68549 -1.91453,2.98492c-1.41667,0.29943 -2.85636,-0.5515 -3.21565,-1.90059c-0.35929,-1.34909 0.49788,-2.68548 1.91454,-2.98491c1.41667,-0.29943 2.85635,0.55149 3.21564,1.90059z" fill="#9e9e9e" stroke="none" stroke-width="0" stroke-linecap="butt"/><path d="M338.11261,194.21396c0.35929,1.34909 -0.49788,2.68549 -1.91454,2.98492c-1.41667,0.29943 -2.85636,-0.5515 -3.21565,-1.90059c-0.35929,-1.34909 0.49788,-2.68549 1.91454,-2.98492c1.41667,-0.29943 2.85636,0.5515 3.21565,1.9006z" fill="#9e9e9e" stroke="none" stroke-width="0" stroke-linecap="butt"/><path d="M343.3914,191.37805c0.35929,1.34909 -0.49788,2.68549 -1.91454,2.98492c-1.41667,0.29943 -2.85635,-0.55149 -3.21564,-1.90059c-0.35929,-1.34909 0.49788,-2.68549 1.91454,-2.98492c1.41667,-0.29943 2.85635,0.55149 3.21564,1.90059z" fill="#9e9e9e" stroke="none" stroke-width="0" stroke-linecap="butt"/><path d="M347.57432,186.12191c0.91596,1.121 0.70422,2.64859 -0.47293,3.41194c-1.17715,0.76336 -2.87394,0.47342 -3.7899,-0.64758c-0.91596,-1.121 -0.70423,-2.64859 0.47291,-3.41194c1.17715,-0.76336 2.87395,-0.47342 3.78991,0.64759z" fill="#9e9e9e" stroke="none" stroke-width="0" stroke-linecap="butt"/><path d="M343.12057,184.01705c0.4042,1.51773 -0.41656,2.99084 -1.83322,3.29027c-1.41667,0.29943 -2.89276,-0.6882 -3.29696,-2.20594c-0.4042,-1.51773 0.41656,-2.99084 1.83323,-3.29027c1.41667,-0.29943 2.89276,0.6882 3.29696,2.20594z" fill="#9e9e9e" stroke="none" stroke-width="0" stroke-linecap="butt"/><path d="M337.5165,185.63158c0.4042,1.51773 -0.41656,2.99084 -1.83322,3.29027c-1.41667,0.29943 -2.89276,-0.68821 -3.29697,-2.20594c-0.4042,-1.51773 0.41656,-2.99083 1.83323,-3.29026c1.41667,-0.29943 2.89276,0.6882 3.29696,2.20594z" fill="#9e9e9e" stroke="none" stroke-width="0" stroke-linecap="butt"/><path d="M332.20679,186.53883c0.4042,1.51773 -0.41656,2.99083 -1.83323,3.29026c-1.41667,0.29943 -2.89276,-0.6882 -3.29696,-2.20594c-0.4042,-1.51773 0.41656,-2.99084 1.83323,-3.29027c1.41667,-0.29943 2.89276,0.68821 3.29696,2.20594z" fill="#9e9e9e" stroke="none" stroke-width="0" stroke-linecap="butt"/><path d="M326.84288,187.24252c0.4042,1.51773 -0.41656,2.99083 -1.83323,3.29026c-1.41667,0.29943 -2.89276,-0.6882 -3.29696,-2.20594c-0.4042,-1.51773 0.41656,-2.99084 1.83322,-3.29027c1.41667,-0.29943 2.89276,0.6882 3.29696,2.20594z" fill="#9e9e9e" stroke="none" stroke-width="0" stroke-linecap="butt"/><path d="M322.17611,186.93876c0.4042,1.51773 -0.41656,2.99083 -1.83322,3.29026c-1.41667,0.29943 -2.89276,-0.6882 -3.29697,-2.20594c-0.4042,-1.51773 0.41656,-2.99084 1.83323,-3.29027c1.41667,-0.29943 2.89276,0.68821 3.29696,2.20594z" fill="#9e9e9e" stroke="none" stroke-width="0" stroke-linecap="butt"/><path d="M321.16107,196.72177c-5.65073,-1.28075 -6.75751,-6.1756 -7.74029,-8.47805c-1.70516,-3.99481 -0.77556,-6.27867 -0.77556,-6.27867c0,0 1.04928,6.59952 6.33578,9.74167c4.88345,2.90259 11.76444,4.35517 14.84641,3.63554c3.19438,-0.74588 9.42872,-5.53592 12.46442,-10.36671c3.1717,-5.04721 1.59654,-10.24455 1.59654,-10.24455c0,0 5.10665,11.71114 -1.30963,16.83346c-4.42827,3.53523 -7.37188,6.84369 -13.70266,6.83851c-2.84212,-0.00232 -6.92651,-0.59588 -11.71502,-1.68121z" fill="#c8b16c" stroke="none" stroke-width="0" stroke-linecap="butt"/><path d="M348.82397,150.5131l-4.24278,7.23106l-5.41125,-2.51983l4.24278,-7.23106z" fill="#aeaeae" stroke="#aeaeae" stroke-width="2" stroke-linecap="butt"/><path d="M305.69706,165.35673l-6.84399,-5.42221l4.05762,-4.06472l6.84399,5.42221z" fill="#aeaeae" stroke="#aeaeae" stroke-width="2" stroke-linecap="butt"/><path d="M347.21298,163.58512c1.58529,5.9526 4.15828,12.30512 0.31491,16.76222c-2.87107,3.32953 -11.18325,5.42442 -16.09372,6.46231c-5.71728,1.20841 -14.95709,2.4594 -19.61668,-0.12778c-4.69982,-2.60953 -4.80074,-9.08485 -6.19145,-14.30684c-2.76951,-10.39929 4.2949,-20.79726 15.77883,-23.22452c11.48391,-2.42726 23.03861,4.03534 25.80813,14.43463z" fill="#dac175" stroke="#dac175" stroke-width="2" stroke-linecap="butt"/><path d="M325.3328,167.39471c1.37254,5.15374 -1.63723,10.20299 -6.7225,11.27782c-5.08527,1.07483 -10.32035,-2.23177 -11.69289,-7.38551c-1.37254,-5.15374 1.63723,-10.20299 6.7225,-11.27782c5.08527,-1.07483 10.32035,2.23177 11.69289,7.38551z" fill="#000000" stroke="#c8b16c" stroke-width="2" stroke-linecap="butt"/><path d="M344.20876,163.63323c1.29432,4.86005 -1.54394,9.62157 -6.33942,10.63516c-4.79548,1.01359 -9.73224,-2.1046 -11.02656,-6.96465c-1.29432,-4.86005 1.54394,-9.62157 6.33942,-10.63516c4.79548,-1.01359 9.73224,2.1046 11.02656,6.96465z" fill="#000000" stroke="#c8b16c" stroke-width="2" stroke-linecap="butt"/><path d="M342.60846,163.96828c0.99536,3.73747 -1.41185,7.44663 -5.37666,8.28463c-3.9648,0.83801 -7.9858,-1.51246 -8.98116,-5.24993c-0.99535,-3.73746 1.41186,-7.44663 5.37667,-8.28463c3.9648,-0.83801 7.98579,1.51246 8.98115,5.24993z" fill="#ffffff" stroke="#ffffff" stroke-width="2" stroke-linecap="butt"/><path d="M322.77341,167.88798c0.95045,3.56883 -1.34815,7.11064 -5.13406,7.91083c-3.78591,0.8002 -7.62547,-1.44423 -8.57592,-5.01306c-0.95045,-3.56883 1.34815,-7.11063 5.13406,-7.91082c3.78591,-0.8002 7.62547,1.44423 8.57592,5.01306z" fill="#ffffff" stroke="#ffffff" stroke-width="2" stroke-linecap="butt"/><path d="M344.3892,176.5457c0.42543,1.59746 1.71697,3.38692 0.81936,4.97098c-0.20939,0.36951 -0.44343,0.93461 -0.83056,1.28459c-2.27478,2.05653 -8.35548,3.46863 -12.60692,4.36722c-4.7995,1.01443 -10.47605,2.03152 -13.6323,0.75587c-2.15508,-0.87102 -2.54804,-3.50893 -2.99754,-5.19674c-1.10782,-4.15972 4.54153,-8.9157 12.61813,-10.62278c8.07661,-1.70709 15.52203,0.28115 16.62985,4.44087z" fill="#c8b16c" stroke="#dac175" stroke-width="2" stroke-linecap="butt"/><path d="M303.96265,148.80741c1.30954,2.00055 1.8453,4.79841 2.21263,6.80688c0.80511,4.4022 2.12128,4.17668 -1.34551,5.97772c-1.20447,0.62574 -2.30991,1.74445 -2.88223,1.82204c-0.68993,0.09354 -5.69481,-0.17279 -7.42647,-0.94937c-2.85275,-1.27933 -6.09713,-2.80047 -8.07756,-5.82592c-4.1798,-6.38537 -3.47558,-13.6879 1.57289,-16.31064c5.04847,-2.62274 11.76645,2.0939 15.94624,8.47927z" fill="#dac175" stroke="#dac175" stroke-width="2" stroke-linecap="butt"/><path d="M357.9973,147.06611c-1.21907,2.04542 -3.77805,4.36701 -5.50097,5.7031c-3.77631,2.92848 -5.0599,3.46139 -8.60444,1.78479c-1.23149,-0.58251 -2.4109,-0.91668 -2.7864,-1.30921c-0.45266,-0.47319 -1.1703,-1.14039 -1.34145,-2.86077c-0.28196,-2.83415 -0.74569,-9.10418 1.09791,-12.19749c3.89102,-6.5286 10.76403,-9.78727 15.92575,-7.34573c5.16172,2.44155 5.10062,9.69669 1.20959,16.2253z" fill="#dac175" stroke="#dac175" stroke-width="2" stroke-linecap="butt"/><path d="M302.09966,148.27266c3.68474,4.59839 3.67644,10.23103 -0.0185,12.58084c-3.69494,2.34981 -9.67735,0.52699 -13.36207,-4.07141c-3.68474,-4.59839 -3.67644,-10.23103 0.0185,-12.58085c3.69494,-2.34981 9.67735,-0.52698 13.36207,4.07141z" fill="#d98787" stroke="#dac175" stroke-width="2" stroke-linecap="butt"/><path d="M357.58138,145.76523c-2.73138,5.35353 -8.48862,8.34165 -12.85915,6.67419c-4.37053,-1.66746 -5.69932,-7.3591 -2.96793,-12.71262c2.73138,-5.35353 8.4886,-8.34166 12.85913,-6.6742c4.37053,1.66747 5.69932,7.35911 2.96793,12.71263z" fill="#d98787" stroke="#dac175" stroke-width="2" stroke-linecap="butt"/><path d="M332.30567,172.40939c0.24738,0.92887 -0.39797,1.46445 -0.8751,2.25018c-0.56897,0.93696 -1.1003,2.06237 -2.37011,2.33076c-1.40614,0.29721 -1.93077,-0.22453 -2.94464,-0.98342c-0.66946,-0.5011 -2.04894,-1.00064 -2.26463,-1.81057c-0.54237,-2.03653 1.1941,-2.32421 3.52874,-2.81767c2.33465,-0.49346 4.38338,-1.00582 4.92574,1.03071z" fill="#d98787" stroke="#d98787" stroke-width="2" stroke-linecap="butt"/><path d="M319.61446,180.492c-0.07486,-0.28106 0.12022,-0.56297 0.43572,-0.62965c0.31549,-0.06668 0.63193,0.1071 0.70679,0.38817c0.07486,0.28106 -0.12023,0.56297 -0.43572,0.62965c-0.31549,0.06668 -0.63192,-0.1071 -0.70678,-0.38816z" fill="#000000" stroke="none" stroke-width="0.5" stroke-linecap="butt"/><path d="M317.63144,183.92144c-0.07486,-0.28106 0.12023,-0.56297 0.43572,-0.62965c0.31549,-0.06668 0.63193,0.1071 0.70678,0.38817c0.07486,0.28106 -0.12022,0.56296 -0.43572,0.62964c-0.31549,0.06668 -0.63193,-0.1071 -0.70679,-0.38816z" fill="#000000" stroke="none" stroke-width="0.5" stroke-linecap="butt"/><path d="M322.49579,182.24823c-0.07486,-0.28106 0.12023,-0.56297 0.43572,-0.62965c0.31549,-0.06668 0.63193,0.1071 0.70678,0.38817c0.07486,0.28106 -0.12023,0.56296 -0.43572,0.62964c-0.31549,0.06668 -0.63193,-0.1071 -0.70678,-0.38816z" fill="#000000" stroke="none" stroke-width="0.5" stroke-linecap="butt"/><path d="M336.93787,175.75539c-0.07486,-0.28106 0.12023,-0.56297 0.43572,-0.62965c0.31549,-0.06668 0.63193,0.10711 0.70678,0.38817c0.07486,0.28106 -0.12023,0.56296 -0.43572,0.62964c-0.31549,0.06668 -0.63192,-0.1071 -0.70678,-0.38816z" fill="#000000" stroke="none" stroke-width="0.5" stroke-linecap="butt"/><path d="M334.48619,180.14396c-0.07486,-0.28106 0.12022,-0.56296 0.43572,-0.62964c0.31549,-0.06668 0.63193,0.1071 0.70679,0.38817c0.07486,0.28106 -0.12023,0.56297 -0.43572,0.62965c-0.31549,0.06668 -0.63193,-0.10711 -0.70678,-0.38817z" fill="#000000" stroke="none" stroke-width="0.5" stroke-linecap="butt"/><path d="M340.48141,179.09182c-0.07486,-0.28106 0.12023,-0.56297 0.43572,-0.62965c0.31549,-0.06668 0.63193,0.1071 0.70678,0.38817c0.07486,0.28106 -0.12023,0.56296 -0.43572,0.62964c-0.31549,0.06668 -0.63193,-0.1071 -0.70678,-0.38816z" fill="#000000" stroke="none" stroke-width="0.5" stroke-linecap="butt"/><path d="M317.31914,166.28445c1.71705,0.36292 2.73745,2.05216 2.27916,3.77302c-0.4583,1.72086 -2.22176,2.82169 -3.9388,2.45878c-1.71704,-0.36292 -2.73745,-2.05216 -2.27916,-3.77302c0.45829,-1.72086 2.22176,-2.82169 3.9388,-2.45878z" fill="#000000" stroke="#a7ff88" stroke-width="12.5" stroke-linecap="butt"/><path d="M338.59985,165.32124c0.44111,1.65634 -0.54103,3.28223 -2.19368,3.63153c-1.65265,0.34931 -3.34999,-0.71024 -3.7911,-2.36658c-0.44111,-1.65633 0.54104,-3.28222 2.19369,-3.63152c1.65265,-0.34931 3.34998,0.71024 3.79109,2.36657z" fill="#000000" stroke="#a7ff88" stroke-width="12.5" stroke-linecap="butt"/><path d="M319.87254,165.21332c0.17964,0.67455 -0.39085,1.37274 -1.27423,1.55945c-0.88338,0.18671 -1.74513,-0.20876 -1.92477,-0.8833c-0.17964,-0.67455 0.39085,-1.37274 1.27423,-1.55945c0.88338,-0.18671 1.74513,0.20876 1.92477,0.8833z" fill="#ffffff" stroke="none" stroke-width="0" stroke-linecap="butt"/><path d="M315.2546,173.57425c0.17964,0.67455 -0.39085,1.37274 -1.27423,1.55945c-0.88338,0.18671 -1.74512,-0.20876 -1.92476,-0.8833c-0.17964,-0.67455 0.39085,-1.37274 1.27423,-1.55945c0.88338,-0.18671 1.74512,0.20876 1.92476,0.8833z" fill="#ffffff" stroke="none" stroke-width="0" stroke-linecap="butt"/><path d="M339.92988,169.3174c0.17964,0.67455 -0.39085,1.37274 -1.27423,1.55945c-0.88338,0.18671 -1.74513,-0.20875 -1.92477,-0.8833c-0.17964,-0.67455 0.39085,-1.37274 1.27423,-1.55945c0.88338,-0.18671 1.74513,0.20875 1.92477,0.8833z" fill="#ffffff" stroke="none" stroke-width="0" stroke-linecap="butt"/><path d="M333.79937,163.51746c0.17964,0.67455 -0.39085,1.37274 -1.27423,1.55945c-0.88338,0.18671 -1.74512,-0.20875 -1.92476,-0.8833c-0.17964,-0.67455 0.39085,-1.37274 1.27423,-1.55945c0.88338,-0.18671 1.74513,0.20876 1.92477,0.88331z" fill="#ffffff" stroke="none" stroke-width="0" stroke-linecap="butt"/><path d="M315.15673,124.9338c0,-1.24887 1.21693,-2.26128 2.71809,-2.26128c1.50116,0 2.71809,1.01241 2.71809,2.26128c0,1.24887 -1.21693,2.26128 -2.71809,2.26128c-1.50116,0 -2.71809,-1.01241 -2.71809,-2.26128z" fill="#000000" stroke="none" stroke-width="0.5" stroke-linecap="butt"/><path d="M137.70934,201.67534l-10.88611,-67.65805l57.22915,-6.37316l10.88611,67.65805z" fill="#e6dddd" stroke="#cdcdcd" stroke-width="2.5" stroke-linecap="butt"/><path d="M174.46959,139.15097c-0.98744,1.64299 -2.96232,0.82149 -2.96232,0.82149l0.18432,-0.72486c-1.69416,0.68233 -3.99338,0.4681 -5.31725,1.58123c-0.4856,0.4083 0.55488,1.17814 0.28489,1.70677c-0.63471,1.24269 -1.5023,2.52427 -2.83778,3.29154c-0.87513,0.50278 -2.16355,-0.08063 -3.18415,0.16821c-1.26344,0.30806 -2.23251,1.29762 -3.53277,1.46953c-1.75896,0.23256 -3.7996,0.45879 -5.33109,-0.29759c-0.48047,-0.23729 -1.20767,-1.2708 -1.54316,-2.35844c-0.37163,0.45721 -0.82628,0.83666 -1.42312,1.01829c-1.64877,0.50175 -4.05906,0.75037 -5.25271,-0.32067c-1.36257,-1.22259 -0.43113,-3.31514 -0.64671,-4.97271c0,0 0,-1.83691 2.20799,-1.83691c2.20799,0 2.20799,1.83691 2.20799,1.83691c-1.70154,6.24866 0.44402,-3.11903 4.56375,-1.77026c1.73427,0.56778 1.75386,2.74567 2.41374,4.19573c0.17428,0.38298 -0.36311,1.01065 0.0543,1.22769c0.50058,0.26029 1.18698,-0.11391 1.73445,-0.29759c1.22104,-0.40965 2.26395,-1.17718 3.53277,-1.46953c0.68252,-0.15726 1.45879,0.3898 2.11502,0.16821c0.46697,-0.15767 0.58979,-0.70701 0.695,-1.11705c0.22686,-0.88414 -0.4588,-2.04261 0.28489,-2.70181c1.78481,-1.58206 4.70141,-1.87958 7.04745,-2.82736l3.71709,0.74467c0,0 1.97489,0.82149 0.98744,2.46447z" fill="#000000" stroke="none" stroke-width="0.5" stroke-linecap="butt"/><path d="M177.06562,157.99463c-0.56207,0 -0.96426,-0.17148 -1.25204,-0.41687c-1.26083,0.31738 -2.52453,0.62507 -3.61301,1.34447c-1.28797,0.85124 -1.95661,2.69068 -3.37529,3.25429c-1.30176,0.51715 -3.01754,-1.10944 -4.15751,-0.25982c-0.69518,0.51811 -1.05167,1.59307 -1.86344,1.85063c-2.81355,0.89267 -3.84301,-0.63081 -6.04048,0.69252c-0.93648,0.56396 -1.54825,1.93122 -2.61963,2.01195c-2.18255,0.16446 -1.28172,-3.44645 -1.76434,-0.62072c0,0 -1.39723,1.49856 -2.79446,0c-1.39723,-1.49856 0,-2.99712 0,-2.99712c0.99267,-0.77206 1.76158,-2.15053 2.97801,-2.31616c0.73925,-0.10065 0.84269,1.58538 1.58078,1.69543c0.46065,0.06869 0.15116,-1.10848 0.54195,-1.37891c1.86867,-1.29315 4.46019,-0.37566 6.60581,-1.00291c0.62257,-0.182 0.7293,-1.21349 1.29813,-1.54024c1.05155,-0.60403 2.21837,-1.10611 3.41001,-1.16423c0.69743,-0.03402 1.27221,1.19101 1.91719,0.90441c1.04097,-0.46256 1.26211,-2.09269 2.21363,-2.73997c0.14287,-0.09719 5.37068,-1.95852 6.30981,-2.29426l2.60084,2.85825c0,0 0,2.11929 -1.97598,2.11929z" fill="#000000" stroke="none" stroke-width="0.5" stroke-linecap="butt"/><path d="M182.71446,176.07636c1.65193,1.37431 0,2.74861 0,2.74861l-2.5864,1.34669c-2.64974,0 -5.3932,-0.16421 -8.03604,-0.0251c-0.51606,0.02716 -1.20323,-0.10302 -1.52571,0.23327c-0.61429,0.6406 -0.23539,1.75496 -0.93447,2.33227c-0.76741,0.63374 -2.19044,0.38834 -3.0373,0.94768c-0.97024,0.64082 -1.05265,2.08262 -2.18465,2.50131c-1.46227,0.54085 -3.25185,0.41971 -4.79978,0.08203c-0.74651,-0.16285 -0.75975,-1.31431 -1.51167,-1.4589c-0.69018,-0.13271 -1.18618,0.75898 -1.89246,0.80432c-1.54164,0.09897 -3.4253,0.43476 -4.61534,-0.38654c-0.21029,-0.14514 -0.3111,-0.33131 -0.34346,-0.54312c-0.56532,0.25979 -1.3636,0.38031 -2.31813,-0.14909c-1.94382,-1.0781 -0.64794,-2.69523 -0.64794,-2.69523l4.21149,-3.16923c0.65782,1.16427 1.01183,2.48535 1.97346,3.49282c0.12042,0.12616 0.29349,0.03349 0.48178,-0.09397l0.34694,1.15451l-3.00882,0.62579l-0.1172,0.14626l-0.15982,-0.08864l-1.247,0.25936l-0.34292,-1.14118l-2.13788,-1.18573l1.84884,-2.3072c0.41597,-0.53584 1.14015,-0.89055 1.96391,-0.89055c1.1118,0 2.0422,0.64611 2.27828,1.51162l0.57569,1.91574c0.16662,-0.11278 0.34516,-0.25281 0.50971,-0.29257c1.22356,-0.29565 2.46088,-0.9405 3.71437,-0.75053c1.20667,0.18287 2.19156,2.47502 3.03328,1.73283c0.69285,-0.61094 0.76784,-1.63547 1.55324,-2.16324c0.69266,-0.46545 1.94255,-0.08121 2.56954,-0.60717c0.69361,-0.58186 0.19341,-1.79241 0.93447,-2.33227c3.10987,-2.26554 9.09484,-1.34669 12.8656,-1.34669l-0.71746,-0.20816c0,0 1.65193,-1.37431 3.30386,0z" fill="#000000" stroke="none" stroke-width="0.5" stroke-linecap="butt"/><path d="M97.34278,198.06347l5.34338,-63.6041l53.80008,3.12823l-5.34338,63.6041z" fill="#fdf3f3" stroke="#cdcdcd" stroke-width="2.5" stroke-linecap="butt"/><path d="M142.09778,169.44591c-1.18435,1.5503 -3.04782,0.56499 -3.04782,0.56499l0.2725,-0.70537c-1.76919,0.53452 -4.03,0.12568 -5.48384,1.12025c-0.53328,0.36482 0.40706,1.21919 0.07345,1.72207c-0.78422,1.18214 -1.80491,2.38313 -3.22775,3.03267c-0.93237,0.42564 -2.14229,-0.2644 -3.18813,-0.10375c-1.2947,0.19888 -2.38039,1.10074 -3.69499,1.16105c-1.77832,0.0816 -3.83609,0.1329 -5.26651,-0.74988c-0.44876,-0.27694 -1.04501,-1.36695 -1.24495,-2.47744c-0.42591,0.42318 -0.92486,0.76193 -1.5409,0.89179c-1.70183,0.35875 -4.13004,0.40086 -5.18569,-0.76617c-1.20503,-1.33217 -0.0211,-3.33444 -0.03166,-5.00166c0,0 0.22595,-1.82726 2.42234,-1.6393c2.19639,0.18798 1.97045,2.01524 1.97045,2.01524c-2.46121,6.071 0.82533,-3.06485 4.75754,-1.37244c1.65533,0.71245 1.40692,2.88057 1.88498,4.37919c0.12626,0.39581 -0.48553,0.97443 -0.097,1.22587c0.46595,0.30154 1.19476,-0.01227 1.76195,-0.14837c1.26502,-0.30355 2.39686,-0.97826 3.69499,-1.16105c0.69829,-0.09833 1.40317,0.51194 2.08322,0.34739c0.48392,-0.11709 0.67365,-0.6531 0.82874,-1.05201c0.33442,-0.86018 -0.20514,-2.07095 0.61572,-2.66338c1.97005,-1.42181 4.90792,-1.46946 7.35824,-2.21254l3.60598,1.0572c0,0 1.86348,0.98531 0.67912,2.53561z" fill="#000000" stroke="none" stroke-width="0.5" stroke-linecap="butt"/><path d="M137.6378,190.6847c-0.51182,-0.19327 -0.79284,-0.4877 -0.93298,-0.81012c-1.30578,-0.14454 -2.60934,-0.29889 -3.95791,-0.01809c-1.59571,0.33226 -3.11843,1.77731 -4.69026,1.8027c-1.44229,0.02329 -2.19654,-2.04785 -3.65668,-1.66618c-0.89042,0.23275 -1.7491,1.08901 -2.61624,1.0444c-3.00546,-0.1546 -3.18601,-1.89585 -5.84444,-1.44645c-1.13293,0.19151 -2.36927,1.22616 -3.38495,0.93128c-2.0691,-0.60072 0.54513,-3.57903 -1.2982,-1.17191c0,0 -2.0168,0.88413 -2.5446,-0.96089c-0.5278,-1.84502 1.48901,-2.72914 1.48901,-2.72914c1.28748,-0.36169 2.67248,-1.35252 3.86244,-1.08505c0.72316,0.16254 -0.02029,1.73339 0.59713,2.0874c0.38534,0.22094 0.68835,-0.95739 1.17855,-1.06927c2.34404,-0.53497 4.24803,1.19159 6.51341,1.35821c0.65732,0.04835 1.26695,-0.85421 1.94727,-0.95615c1.25763,-0.18845 2.56956,-0.24441 3.68352,0.11242c0.65197,0.20884 0.56674,1.52198 1.29645,1.48278c1.1777,-0.06325 2.18893,-1.4716 3.37695,-1.73381c0.17837,-0.03937 5.86349,0.06334 6.88546,0.08054l0.94827,3.497c0,0 -1.05289,1.9298 -2.8522,1.25035z" fill="#000000" stroke="none" stroke-width="0.5" stroke-linecap="butt"/><path d="M145.74849,146.22741c1.65192,1.3743 0,2.74862 0,2.74862l-2.5864,1.34668c-2.64974,0 -5.39322,-0.1642 -8.03604,-0.0251c-0.51606,0.02716 -1.20323,-0.10302 -1.52571,0.23327c-0.6143,0.64059 -0.2354,1.75496 -0.93448,2.33228c-0.76741,0.63374 -2.19044,0.38835 -3.0373,0.94769c-0.97024,0.64082 -1.05265,2.08262 -2.18465,2.5013c-1.46227,0.54085 -3.25185,0.41971 -4.79978,0.08203c-0.74651,-0.16286 -0.75975,-1.31431 -1.51167,-1.4589c-0.69018,-0.13272 -1.18618,0.75898 -1.89246,0.80432c-1.54164,0.09897 -3.4253,0.43476 -4.61534,-0.38654c-0.21029,-0.14514 -0.3111,-0.33131 -0.34346,-0.54312c-0.56532,0.2598 -1.3636,0.3803 -2.31813,-0.1491c-1.94382,-1.07809 -0.64795,-2.69523 -0.64795,-2.69523l4.21149,-3.16923c0.65782,1.16427 1.01182,2.48535 1.97346,3.49282c0.12042,0.12616 0.29349,0.03349 0.48179,-0.09397l0.34694,1.15452l-3.00881,0.62579l-0.1172,0.14627l-0.15983,-0.08865l-1.247,0.25936l-0.34292,-1.14117l-2.13788,-1.18573l1.84884,-2.3072c0.41597,-0.53584 1.14016,-0.89055 1.96391,-0.89055c1.11178,0 2.0422,0.64611 2.27828,1.51162l0.57568,1.91574c0.16662,-0.11278 0.34516,-0.25281 0.50972,-0.29257c1.22355,-0.29564 2.46088,-0.94049 3.71437,-0.75053c1.20667,0.18287 2.19156,2.47501 3.03328,1.73283c0.69286,-0.61093 0.76784,-1.63547 1.55324,-2.16325c0.69267,-0.46545 1.94256,-0.08121 2.56954,-0.60716c0.69362,-0.58186 0.19342,-1.79242 0.93448,-2.33228c3.10987,-2.26554 9.09484,-1.34668 12.8656,-1.34668l-0.71746,-0.20817c0,0 1.65193,-1.3743 3.30387,0z" fill="#000000" stroke="none" stroke-width="0.5" stroke-linecap="butt"/><path d="M257.385,83.99403l8.29504,63.28685l-53.23602,8.37617l-8.29504,-63.28685z" data-paper-data="{&quot;index&quot;:null}" fill="#fdf3f3" stroke="#cdcdcd" stroke-width="2.5" stroke-linecap="butt"/><path d="M216.83333,138.5c0,0 3.32425,-3.0768 3.82242,-4.95877c0.50181,-1.89571 -0.82242,-6.37456 -0.82242,-6.37456h7.33333v11.66667z" fill="#0e8bff" stroke="none" stroke-width="0" stroke-linecap="butt"/><path d="M225,96.5c0,-1.38071 1.11929,-2.5 2.5,-2.5c1.38071,0 2.5,1.11929 2.5,2.5c0,1.38071 -1.11929,2.5 -2.5,2.5c-1.38071,0 -2.5,-1.11929 -2.5,-2.5z" fill="#040404" stroke="none" stroke-width="0.5" stroke-linecap="butt"/><path d="M215.39192,130.68485l-2.85726,-24.83618l39.40675,-4.53352l2.85726,24.83618z" fill="#0e8bff" stroke="none" stroke-width="0" stroke-linecap="butt"/><path d="M229.5,114.16667c0,2.57733 -2.16396,4.66667 -4.83333,4.66667c-2.66938,0 -4.83333,-2.08934 -4.83333,-4.66667c0,-2.57733 2.16396,-4.66667 4.83333,-4.66667c2.66938,0 4.83333,2.08934 4.83333,4.66667z" fill="#010c17" stroke="none" stroke-width="0" stroke-linecap="butt"/><path d="M245.16667,112.5c0,2.57733 -2.16396,4.66666 -4.83334,4.66666c-2.66938,0 -4.83333,-2.08933 -4.83333,-4.66666c0,-2.57733 2.16395,-4.66667 4.83333,-4.66667c2.66938,0 4.83334,2.08934 4.83334,4.66667z" fill="#010c17" stroke="none" stroke-width="0" stroke-linecap="butt"/><path d="M226.87254,111.87999c0.17964,0.67455 -0.39085,1.37274 -1.27423,1.55945c-0.88338,0.18671 -1.74513,-0.20876 -1.92477,-0.8833c-0.17964,-0.67455 0.39085,-1.37274 1.27423,-1.55945c0.88338,-0.18671 1.74513,0.20876 1.92477,0.8833z" fill="#ffffff" stroke="none" stroke-width="0" stroke-linecap="butt"/><path d="M225.20587,116.54665c0.17964,0.67455 -0.39085,1.37274 -1.27423,1.55945c-0.88338,0.18671 -1.74513,-0.20876 -1.92477,-0.8833c-0.17964,-0.67455 0.39085,-1.37274 1.27423,-1.55945c0.88338,-0.18671 1.74513,0.20876 1.92477,0.8833z" fill="#ffffff" stroke="none" stroke-width="0" stroke-linecap="butt"/><path d="M239.53921,111.21332c0.17964,0.67455 -0.39085,1.37274 -1.27423,1.55945c-0.88338,0.18671 -1.74513,-0.20876 -1.92477,-0.8833c-0.17964,-0.67455 0.39085,-1.37274 1.27423,-1.55945c0.88338,-0.18671 1.74513,0.20876 1.92477,0.8833z" fill="#ffffff" stroke="none" stroke-width="0" stroke-linecap="butt"/><path d="M244.53921,114.21332c0.17964,0.67455 -0.39085,1.37274 -1.27423,1.55945c-0.88338,0.18671 -1.74513,-0.20876 -1.92477,-0.8833c-0.17964,-0.67455 0.39085,-1.37274 1.27423,-1.55945c0.88338,-0.18671 1.74513,0.20876 1.92477,0.8833z" fill="#ffffff" stroke="none" stroke-width="0" stroke-linecap="butt"/><path d="M246.05902,115.38197c1.11803,0.55902 0.55902,1.67705 0.55902,1.67705l-0.77065,1.5052c-2.2852,2.33135 -5.39804,5.05114 -8.72686,5.81901c-5.58709,1.28878 -11.71861,-0.63323 -17.28719,-0.63323c0,0 -1.25,0 -1.25,-1.25c0,-1.25 1.25,-1.25 1.25,-1.25c5.41147,0 11.29141,1.84349 16.71281,0.70011c2.70736,-0.57099 5.38704,-3.01106 7.27314,-4.84766l0.56269,-1.16146c0,0 0.55902,-1.11803 1.67705,-0.55902z" fill="#080808" stroke="none" stroke-width="0.5" stroke-linecap="butt"/><path d="M243.65048,136.38778l-3.8829,-11.00155l6.91526,-2.44068c0,0 0.14729,4.69795 1.15822,6.88421c0.77614,1.67848 4.39135,5.11734 4.39135,5.11734z" data-paper-data="{&quot;index&quot;:null}" fill="#0e8bff" stroke="none" stroke-width="0" stroke-linecap="butt"/><path d="M95.02517,248.65623v-15.49512h297.44251v15.49512z" fill="#a56600" stroke="none" stroke-width="NaN" stroke-linecap="butt"/><path d="M171.11807,270.75907l18.76228,0.22266l0.81448,59.19525l-18.76228,-0.22266z" fill="#784a00" stroke="none" stroke-width="0" stroke-linecap="butt"/><path d="M176.71713,283.52024v-15.49512h186.42524v15.49512z" fill="#784a00" stroke="none" stroke-width="0" stroke-linecap="butt"/><path d="M94.5015,273.4242v-32.20079h298.48985v32.20079z" fill="#985e00" stroke="none" stroke-width="0" stroke-linecap="butt"/><path d="M94.99898,330.00559v-87.40214h85.56709v87.40214z" fill="#985e00" stroke="none" stroke-width="0" stroke-linecap="butt"/><path d="M356.85837,329.03715v-88.12848h36.65665v88.12848z" fill="#985e00" stroke="none" stroke-width="0" stroke-linecap="butt"/><g data-paper-data="{&quot;index&quot;:null}" stroke="#784a00"><path d="M174.68394,299.16103l-74.3644,0.67735l0.12415,-27.11621l73.31264,0.28698z" fill="none" stroke-width="2.5" stroke-linecap="round"/><path d="M134.92334,290.77353c-1.44605,-0.00566 -2.61335,-1.09421 -2.60723,-2.43134c0.00612,-1.33713 1.18334,-2.4165 2.62939,-2.41084c1.44605,0.00566 2.61335,1.09421 2.60723,2.43134c-0.00612,1.33713 -1.18334,2.4165 -2.62939,2.41084z" fill="#784a00" stroke-width="0.5" stroke-linecap="butt"/></g><g stroke="#784a00"><path d="M100.26183,300.95225h73.3133v27.11645l-74.36063,-0.96844z" fill="none" stroke-width="2.5" stroke-linecap="round"/><path d="M137.44215,315.47891c0,-1.33714 1.17227,-2.42111 2.61833,-2.42111c1.44606,0 2.61833,1.08397 2.61833,2.42111c0,1.33714 -1.17227,2.42111 -2.61833,2.42111c-1.44606,0 -2.61833,-1.08397 -2.61833,-2.42111z" fill="#784a00" stroke-width="0.5" stroke-linecap="butt"/></g><g stroke="#784a00"><path d="M100.26183,243.81401h73.3133v27.11645l-74.36063,-0.96844z" fill="none" stroke-width="2.5" stroke-linecap="round"/><path d="M133.25281,258.34067c0,-1.33714 1.17227,-2.42111 2.61833,-2.42111c1.44606,0 2.61833,1.08397 2.61833,2.42111c0,1.33714 -1.17227,2.42111 -2.61833,2.42111c-1.44606,0 -2.61833,-1.08397 -2.61833,-2.42111z" fill="#784a00" stroke-width="0.5" stroke-linecap="butt"/></g><g stroke="#784a00"><path d="M189.83091,244.78244h184.83211v20.33734l-187.47257,-0.72633z" fill="none" stroke-width="2.5" stroke-linecap="round"/><path d="M273.00536,255.67746c0,-1.00286 2.95544,-1.81583 6.60115,-1.81583c3.64571,0 6.60115,0.81298 6.60115,1.81583c0,1.00286 -2.95544,1.81583 -6.60115,1.81583c-3.64571,0 -6.60115,-0.81298 -6.60115,-1.81583z" fill="#784a00" stroke-width="0.5" stroke-linecap="butt"/></g><path d="M109.38169,238.00334c0,0 -5.66269,-28.57077 -5.66269,-41.07751c0,-10.1001 5.66269,-28.29784 5.66269,-28.29784c0,0 21.6376,-4.56417 33.97611,-4.56417c11.8668,0 38.69502,4.56417 38.69502,4.56417c0,0 3.77512,20.33169 3.77512,31.03634c0,12.2194 -3.77512,38.33901 -3.77512,38.33901z" fill="#a4a4a4" stroke="none" stroke-width="0" stroke-linecap="butt"/><path d="M115.98816,231.6135c0,0 -4.61404,-23.27989 -4.61404,-33.47057c0,-8.22971 4.61404,-23.0575 4.61404,-23.0575c0,0 17.63064,-3.71895 27.68424,-3.71895c9.66925,0 31.52928,3.71895 31.52928,3.71895c0,0 3.07603,16.56656 3.07603,25.28887c0,9.95655 -3.07603,31.2392 -3.07603,31.2392z" fill="#000000" stroke="none" stroke-width="0" stroke-linecap="butt"/><path d="M171.48046,234.94159c0,-0.66857 0.58613,-1.21056 1.30917,-1.21056c0.72303,0 1.30917,0.54198 1.30917,1.21056c0,0.66857 -0.58613,1.21056 -1.30917,1.21056c-0.72303,0 -1.30917,-0.54198 -1.30917,-1.21056z" fill="#ffffff" stroke="none" stroke-width="0.5" stroke-linecap="butt"/><path d="M178.81179,234.94159c0,-0.66857 0.58613,-1.21056 1.30917,-1.21056c0.72303,0 1.30917,0.54198 1.30917,1.21056c0,0.66857 -0.58613,1.21056 -1.30917,1.21056c-0.72303,0 -1.30917,-0.54198 -1.30917,-1.21056z" fill="#ffffff" stroke="none" stroke-width="0.5" stroke-linecap="butt"/><path d="M272.5,39c0,6.90356 -15.44617,12.5 -34.5,12.5c-19.05382,0 -34.5,-5.59644 -34.5,-12.5c0,-6.90356 15.44618,-12.5 34.5,-12.5c19.05383,0 34.5,5.59644 34.5,12.5z" fill="#8b7d6d" stroke="none" stroke-width="NaN" stroke-linecap="butt"/><path d="M267.7,39.8c0,8.22904 -10.18049,16.7 -29.4,16.7c-19.21951,0 -30.4,-7.87096 -30.4,-16.1c0,-2.76644 3.3314,-3.21088 5.82925,-4.44058c4.93223,-2.42815 12.41247,-3.85942 25.17075,-3.85942c11.87986,0 17.67698,1.59787 22.20519,3.38687c2.79762,1.10528 6.59481,1.17058 6.59481,4.31313z" fill="#ffe6c7" stroke="none" stroke-width="0" stroke-linecap="butt"/><path d="M12.9107,327.47223l-13.26277,-200.80208l63.44682,5.7272l13.74682,171.81596z" data-paper-data="{&quot;index&quot;:null}" fill="none" stroke="#a3a3a3" stroke-width="5" stroke-linecap="round"/><path d="M406.27359,307.44372l13.55319,-168.81481l62.55321,-5.62716l-11.46809,203.51563z" data-paper-data="{&quot;index&quot;:null}" fill="none" stroke="#a3a3a3" stroke-width="5" stroke-linecap="round"/></g></g></svg>